<svg xmlns="http://www.w3.org/2000/svg" width="24" height="24" fill="none" viewBox="0 0 24 24">
  <path fill="#18181B" d="M12 11a1 1 0 1 0 0 2v-2Zm3 2a1 1 0 1 0 0-2v2Zm-3 2a1 1 0 1 0 0 2v-2Zm3 2a1 1 0 1 0 0-2v2Zm-6-6a1 1 0 1 0 0 2v-2Zm.01 2a1 1 0 1 0 0-2v2ZM9 15a1 1 0 1 0 0 2v-2Zm.01 2a1 1 0 1 0 0-2v2ZM18 7v12h2V7h-2Zm-1 13H7v2h10v-2ZM6 19V7H4v12h2ZM7 6h2V4H7v2Zm8 0h2V4h-2v2ZM7 20a1 1 0 0 1-1-1H4a3 3 0 0 0 3 3v-2Zm11-1a1 1 0 0 1-1 1v2a3 3 0 0 0 3-3h-2Zm2-12a3 3 0 0 0-3-3v2a1 1 0 0 1 1 1h2ZM6 7a1 1 0 0 1 1-1V4a3 3 0 0 0-3 3h2Zm6 6h3v-2h-3v2Zm0 4h3v-2h-3v2ZM11 4h2V2h-2v2Zm2 2h-2v2h2V6Zm-2 0a1 1 0 0 1-1-1H8a3 3 0 0 0 3 3V6Zm3-1a1 1 0 0 1-1 1v2a3 3 0 0 0 3-3h-2Zm-1-1a1 1 0 0 1 1 1h2a3 3 0 0 0-3-3v2Zm-2-2a3 3 0 0 0-3 3h2a1 1 0 0 1 1-1V2ZM9 13h.01v-2H9v2Zm0 4h.01v-2H9v2Z"/>
</svg>
