<svg xmlns="http://www.w3.org/2000/svg" width="24" height="24" fill="none" viewBox="0 0 24 24">
  <path fill="#18181B" d="m12 3 .447-.894a1 1 0 0 0-.894 0L12 3Zm8 4h1a1 1 0 0 0-.553-.894L20 7ZM4 7l-.447-.894A1 1 0 0 0 3 7h1Zm16 10 .447.894A1 1 0 0 0 21 17h-1Zm-8 4-.447.894a1 1 0 0 0 .894 0L12 21Zm-8-4H3a1 1 0 0 0 .553.894L4 17Zm7.553-13.106 8 4 .894-1.788-8-4-.894 1.788Zm8 2.212-8 4 .894 1.788 8-4-.894-1.788Zm-7.106 4-8-4-.894 1.788 8 4 .894-1.788Zm-8-2.212 8-4-.894-1.788-8 4 .894 1.788Zm15.106 8.212-8 4 .894 1.788 8-4-.894-1.788Zm-7.106 4-8-4-.894 1.788 8 4 .894-1.788ZM5 17V7H3v10h2Zm16 0V7h-2v10h2Zm-10-6v10h2V11h-2Z"/>
</svg>
