<svg xmlns="http://www.w3.org/2000/svg" width="24" height="24" fill="none" viewBox="0 0 24 24">
  <path fill="#18181B" d="m20 21-.447.894A1 1 0 0 0 21 21h-1ZM4 21H3a1 1 0 0 0 1.447.894L4 21Zm8 0-.447.894a1 1 0 0 0 .894 0L12 21Zm-4-2 .447-.894a1 1 0 0 0-.894 0L8 19Zm8 0 .447-.894a1 1 0 0 0-.894 0L16 19Zm-1-4a1 1 0 1 0 2 0h-2Zm-7-5-.707-.707a1 1 0 0 0 0 1.414L8 10Zm2.293 3.707a1 1 0 0 0 1.414-1.414l-1.414 1.414Zm1.414-6a1 1 0 0 0-1.414-1.414l1.414 1.414ZM6 4h12V2H6v2Zm13 1v16h2V5h-2ZM5 21V5H3v16h2Zm7.447-.894-4-2-.894 1.788 4 2 .894-1.788Zm-4.894-2-4 2 .894 1.788 4-2-.894-1.788Zm12.894 2-4-2-.894 1.788 4 2 .894-1.788Zm-4.894-2-4 2 .894 1.788 4-2-.894-1.788ZM18 4a1 1 0 0 1 1 1h2a3 3 0 0 0-3-3v2ZM6 2a3 3 0 0 0-3 3h2a1 1 0 0 1 1-1V2Zm11 13v-1h-2v1h2Zm-5-6H8v2h4V9Zm5 5a5 5 0 0 0-5-5v2a3 3 0 0 1 3 3h2Zm-5.293-1.707-3-3-1.414 1.414 3 3 1.414-1.414Zm-3-1.586 3-3-1.414-1.414-3 3 1.414 1.414Z"/>
</svg>
