<svg xmlns="http://www.w3.org/2000/svg" width="24" height="25" fill="none" viewBox="0 0 24 25">
  <path stroke="currentColor" stroke-linecap="round" stroke-linejoin="round" stroke-width="2" d="M17.462 10.905H6.385c-.765 0-1.385.62-1.385 1.384v8.308c0 .765.62 1.385 1.385 1.385h11.077c.764 0 1.384-.62 1.384-1.385V12.29c0-.764-.62-1.384-1.384-1.384Zm-2.119-5.497a4.763 4.763 0 0 0-3.42-1.426 4.846 4.846 0 0 0-4.846 4.846v2.077"/>
  <path stroke="currentColor" stroke-linecap="round" stroke-linejoin="round" stroke-width="2" d="M11.923 17.136a.692.692 0 1 0 0-1.385.692.692 0 0 0 0 1.385Z"/>
</svg>
