<svg xmlns="http://www.w3.org/2000/svg" fill="none" class="size-12" viewBox="0 0 94 93">
  <path stroke="currentColor" stroke-dasharray="1000" stroke-dashoffset="8" stroke-width="3" d="M85.683 23.978 46.905 46.33m0 0-.002 44.814m.002-44.814L8.098 23.926" class="path">
    <animate attributeName="stroke-dashoffset" begin="1s" dur="3s" values="0;0"/>
  </path>
  <path stroke="currentColor" stroke-dasharray="1000" stroke-dashoffset="8" stroke-width="3" d="M8.1 23.679 46.99 1.226l38.889 22.453v44.905l-38.89 22.453L8.102 68.584V23.679Z" class="path">
    <animate attributeName="stroke-dashoffset" begin="2s" dur="2s" values="1000;0"/>
  </path>
  <path fill="currentColor" stroke="currentColor" stroke-dasharray="1000" stroke-dashoffset="8" stroke-width="3" d="M20.065 30.653 46.99 15.108l26.925 15.545v31.09L46.99 77.288 20.065 61.743v-31.09Z" class="fill_invert_ico">
    <animate attributeName="stroke-dashoffset" begin="1s" dur="2s" values="1000;0"/>
  </path>
  <path stroke="currentColor" stroke-width="3" d="M46.99 46.06c-3.15-4.205-6.3-6.3-9.45-6.3a6.3 6.3 0 1 0 0 12.6c3.15 0 6.3-2.094 9.45-6.3Zm0 0c3.15 4.206 6.3 6.3 9.45 6.3a6.3 6.3 0 0 0 0-12.6c-3.15 0-6.3 2.095-9.45 6.3Z" class="path_invert_ico"/>
</svg>