<svg width="73" height="72" viewBox="0 0 73 72" fill="none" xmlns="http://www.w3.org/2000/svg">
<path d="M7.01195 64.0971C6.80626 66.6024 9.2945 69.5305 12.5047 69.5305C15.585 69.5314 18.1102 66.8355 17.9964 64.0971C17.9225 62.303 16.7233 60.674 15.2016 59.9696C12.0763 58.5234 7.28054 60.8429 7.01195 64.0971ZM32.8257 52.586C37.9637 57.674 58.9348 51.5846 63.7607 37.848C69.4932 21.5305 60.5877 8.53496 43.2487 3.48696C29.5337 -0.506037 13.8017 3.69496 10.6557 14.261C8.33666 22.049 29.5577 25.591 32.0667 41.093C33.0727 47.31 30.4597 50.243 32.8257 52.586Z" fill="#FDC963"/>
<path d="M13 48L19 48.5L21.5 53L25 52.5L34.5 50L36 48L34 42L34.5 40.5L36.5 37.5L37.5 32L35 25.5L31.5 21L26.5 19.5L18.5 21.5L13.5 26.5L12.5 33L9.5 40L11.5 41.5L12 45L13 48Z" fill="white"/>
<path fill-rule="evenodd" clip-rule="evenodd" d="M32.3333 20.1201C30.1635 18.7759 27.6048 18 24.8648 18C23.2665 18 21.7299 18.264 20.2961 18.7508L20.295 18.7433C17.5044 19.7007 15.0822 21.5055 13.3666 23.906C11.6509 26.3064 10.7273 29.1827 10.7246 32.1334C10.7251 32.7964 10.5853 33.4522 10.3145 34.0574L8.21924 38.7631C8.07526 39.0865 8.00057 39.4365 8 39.7905C7.99943 40.1445 8.07299 40.4947 8.21592 40.8185C8.35886 41.1424 8.56802 41.4327 8.82993 41.6708C9.09185 41.9089 9.4007 42.0896 9.73664 42.2011L10.7246 42.5292V46.3139C10.7246 46.8036 10.8211 47.2885 11.0084 47.7409C11.1958 48.1933 11.4704 48.6043 11.8166 48.9506C12.1628 49.2968 12.5738 49.5715 13.0261 49.7589C13.4785 49.9463 13.9633 50.0427 14.4529 50.0427H18.2855L18.9902 52.5708C19.0863 52.9147 19.2497 53.236 19.4709 53.5163C19.6921 53.7966 19.9667 54.0301 20.2787 54.2035C20.5908 54.3769 20.9342 54.4867 21.2889 54.5265C21.6437 54.5662 22.0029 54.5352 22.3456 54.4352L35.4914 50.699C35.8349 50.6024 36.1559 50.4387 36.4359 50.2173C36.7158 49.996 36.9492 49.7214 37.1225 49.4094C37.2958 49.0975 37.4056 48.7542 37.4456 48.3996C37.4856 48.0449 37.455 47.6858 37.3555 47.3431L35.6293 41.2875C37.0527 39.6159 38.0669 37.6354 38.5912 35.5033C39.1156 33.3712 39.1358 31.1461 38.6501 29.0049C38.1644 26.8636 37.1863 24.8651 35.7934 23.1679C34.8109 21.9708 33.6411 20.9469 32.3333 20.1338V20.1201ZM15.5499 25.8117C16.6964 24.1146 18.2806 22.7645 20.1296 21.9011C21.091 21.4582 22.1251 21.1459 23.2091 20.987C23.5116 23.7701 23.6681 26.5679 23.6778 29.3688C22.9912 29.747 22.4092 30.2908 21.9841 30.9512C21.559 31.6116 21.3042 32.3678 21.2427 33.1516C21.1811 33.9355 21.3148 34.7224 21.6316 35.4415C21.9484 36.1605 22.4385 36.7892 23.0575 37.2707C22.3761 38.5985 21.3542 39.7197 20.0974 40.5188C19.709 40.2839 19.2549 40.1825 18.804 40.2298C18.353 40.277 17.9296 40.4704 17.5979 40.7807C17.2661 41.091 17.044 41.5014 16.9652 41.9497C16.8863 42.398 16.955 42.8599 17.1608 43.2655C17.3666 43.6711 17.6984 43.9985 18.1059 44.198C18.5135 44.3975 18.9746 44.4583 19.4197 44.3713C19.8647 44.2843 20.2695 44.0541 20.5727 43.7156C20.8758 43.3771 21.061 42.9487 21.1002 42.4952C22.7975 41.4544 24.1764 39.9642 25.0854 38.1881C26.15 38.3852 27.2496 38.2093 28.2005 37.6898C29.1513 37.1703 29.8956 36.3388 30.3089 35.3342C30.7221 34.3297 30.7792 33.2131 30.4707 32.1713C30.1621 31.1296 29.5066 30.2258 28.6138 29.6112C28.6114 26.8586 28.4784 24.1083 28.2156 21.3696C29.1937 21.6717 30.1152 22.1027 30.9603 22.6426L30.9616 22.6585C32.3637 23.5562 33.5491 24.7539 34.4325 26.1653C35.3158 27.5766 35.875 29.1664 36.0697 30.82C36.2645 32.4736 36.0899 34.1499 35.5585 35.7279C35.0272 37.3058 34.1524 38.7462 32.9972 39.9452L32.4268 40.538L34.5519 47.9956L21.7155 51.661L20.4442 47.1865H14.4529C14.3412 47.1865 14.2307 47.1645 14.1276 47.1218C14.0244 47.079 13.9307 47.0164 13.8518 46.9375C13.7729 46.8585 13.7103 46.7648 13.6675 46.6616C13.6248 46.5585 13.6028 46.448 13.6028 46.3363V41.9475C13.6033 41.5154 13.4673 41.0942 13.2142 40.744C12.9611 40.3938 12.6039 40.1325 12.1936 39.9974L10.9968 39.5947L12.9578 35.1984C13.3921 34.2259 13.6157 33.1724 13.614 32.1073C13.6196 29.863 14.2935 27.6712 15.5499 25.8117Z" fill="#232837"/>
<path d="M34 8H63V30H50L43 36V30H34V8Z" fill="white"/>
<path d="M50.3472 30.8395L42.25 37.818V31.597V30.597H41.25H33V7H64V30.597H51H50.6285L50.3472 30.8395Z" stroke="#232837" stroke-width="2"/>
<path d="M40.1798 19H47.2439V17.0751H43.6489V17.0231L44.5117 16.3295C46.6103 14.6431 47.1451 13.7673 47.1451 12.7399C47.1451 11.0838 45.7385 10 43.5321 10C41.3886 10 39.9955 11.1488 40 13.0173H42.3727C42.3682 12.2717 42.8401 11.8555 43.5321 11.8555C44.2196 11.8555 44.7095 12.2673 44.7095 12.948C44.7095 13.5766 44.2915 13.9841 43.613 14.526L40.1798 17.2659V19Z" fill="#232837"/>
<path d="M48.073 17.6127H52.5488V19H54.9395V17.6127H56V15.7399H54.9395V10.1214H51.7759L48.073 15.7399V17.6127ZM52.6027 15.7399H50.5356V15.6705L52.5308 12.6185H52.6027V15.7399Z" fill="#232837"/>
<path d="M40 26.9314H41.5726V24.6457H43.6542V26.9314H45.2268V21.08H43.6542V23.3657H41.5726V21.08H40V26.9314Z" fill="#232837"/>
<path d="M45.9735 26.9314H47.546V25H48.0891L49.1073 26.9314H50.8156L49.639 24.7486C50.2556 24.4486 50.6233 23.88 50.6233 23.0686C50.6233 21.8229 49.7606 21.08 48.4737 21.08H45.9735V26.9314ZM47.546 23.7657V22.3486H48.1004C48.6519 22.3486 48.9829 22.5657 48.9829 23.0686C48.9829 23.5686 48.6519 23.7657 48.1004 23.7657H47.546Z" fill="#232837"/>
<path d="M54.4161 22.9086H55.9208C55.9151 21.76 55.0384 21 53.6355 21C52.2581 21 51.2851 21.7486 51.2936 22.8629C51.2908 23.7771 51.9187 24.2857 52.9454 24.5086L53.5224 24.6343C54.1672 24.7771 54.3878 24.94 54.3935 25.2057C54.3878 25.4943 54.1276 25.6971 53.6242 25.6971C53.0217 25.6971 52.6654 25.4114 52.6399 24.8743H51.1465C51.1522 26.3429 52.1365 27 53.6468 27C55.1147 27 55.9943 26.36 56 25.2057C55.9943 24.3143 55.4683 23.6886 54.1899 23.4114L53.7147 23.3086C53.166 23.1914 52.9199 23.0286 52.9341 22.7486C52.9369 22.4914 53.149 22.3029 53.6355 22.3029C54.1446 22.3029 54.385 22.5286 54.4161 22.9086Z" fill="#232837"/>
</svg>
