<svg width="96" height="78" viewBox="0 0 96 78" fill="none" xmlns="http://www.w3.org/2000/svg">
<path d="M15.7612 0H96L80.2388 78H0L15.7612 0Z" fill="#871EFF"/>
<path d="M41.7105 20.5835H28.3377C28.3377 20.5835 28.3381 22.0386 28.3381 23.8335V33.5835H31.6813H38.3676H41.7105L41.7108 23.8335C41.7108 22.0386 41.7105 20.5835 41.7105 20.5835Z" fill="white"/>
<path d="M66.231 44.4163H52.8582C52.8582 44.4163 52.8586 45.8713 52.8586 47.6663V57.4163H56.2018H62.8882H66.231L66.2314 47.6663C66.2314 45.8713 66.231 44.4163 66.231 44.4163Z" fill="white"/>
<path d="M61.7737 38.9996C61.7737 31.2216 55.2873 24.9163 47.2861 24.9163M47.2861 53.0829C39.2848 53.0829 32.7985 46.7776 32.7985 38.9996" stroke="white" stroke-opacity="0.7" stroke-width="9.75"/>
</svg>
