<svg width="96" height="96" viewBox="0 0 96 96" fill="none" xmlns="http://www.w3.org/2000/svg">
<path d="M42.3728 30H29C29 30 29.0004 31.4551 29.0004 33.25V43H32.3436H39.0299H42.3728L42.3731 33.25C42.3731 31.4551 42.3728 30 42.3728 30Z" fill="white"/>
<path d="M66.8933 53.8325H53.5205C53.5205 53.8325 53.5209 55.2876 53.5209 57.0825V66.8325H56.8641H63.5505H66.8933L66.8936 57.0825C66.8936 55.2876 66.8933 53.8325 66.8933 53.8325Z" fill="white"/>
<path d="M62.4361 48.4159C62.4361 40.6378 55.9498 34.3325 47.9485 34.3325M47.9485 62.4992C39.9472 62.4992 33.4609 56.1939 33.4609 48.4159" stroke="white" stroke-opacity="0.7" stroke-width="9.75"/>
</svg>
