<svg xmlns="http://www.w3.org/2000/svg" width="419" height="525" fill="none">
  <g clip-path="url(#a)" filter="url(#b)">
    <g opacity=".4">
      <g clip-path="url(#c)">
        <rect width="196.345" height="110.55" x="111.399" y="86.512" fill="#18181B" rx="4.95"/>
        <g stroke="#F4F4F5" stroke-linecap="round" stroke-linejoin="round" stroke-width="1.805" clip-path="url(#d)">
          <path d="m137.799 103.011 8.8 4.95v9.9l-8.8 4.95-8.8-4.95v-9.9l8.8-4.95ZM137.799 112.911l8.8-4.95M133.618 110.492l8.36-5.06M137.799 112.911v9.9M137.799 112.911l-8.8-4.95"/>
        </g>
        <path fill="#A1A1AA" d="M152.649 106.312h100.222v6.6H152.649zM152.649 116.212h47.646v3.3h-47.646z"/>
        <g filter="url(#e)">
          <circle cx="140.543" cy="95.856" r="78.644" fill="#fff" fill-opacity=".2"/>
        </g>
        <path fill="#A1A1AA" stroke="#A1A1AA" stroke-width="1.65" d="M133.674 143.316v-3.096l2.681 1.569v3.06l-2.681-1.533Zm5.569-1.527 2.681-1.569v3.096l-2.681 1.533v-3.06Zm-1.444-5.54 2.627 1.501-2.627 1.538-2.627-1.538 2.627-1.501Z"/>
        <path fill="#52525B" d="M152.649 140.136h113.845v1.65H152.649z"/>
        <g clip-path="url(#f)">
          <path fill="#32FFDC" fill-rule="evenodd" d="M281.344 146.736a5.775 5.775 0 1 0 .002-11.55 5.775 5.775 0 0 0-.002 11.55Zm3.171-7.252a.618.618 0 0 0-.568-.993.626.626 0 0 0-.412.235l-3.052 3.952-1.361-1.512a.617.617 0 0 0-1.028.141.617.617 0 0 0 .109.687l1.857 2.063a.613.613 0 0 0 .482.204.622.622 0 0 0 .466-.24l3.507-4.537Z" clip-rule="evenodd"/>
        </g>
        <path fill="#A1A1AA" stroke="#A1A1AA" stroke-width="1.65" d="M141.924 160.143a1.443 1.443 0 0 0-1.444-1.444h-2.062c-.226 0-.446.053-.644.151a1.444 1.444 0 0 0-.398-.759l-1.238-1.237v-.001a1.446 1.446 0 0 0-2.041 0v.001a1.443 1.443 0 0 0 0 2.04v.001l.217.217-.209.208a1.452 1.452 0 0 0-.431.834v-4.342a.826.826 0 0 1 .825-.825h6.6a.825.825 0 0 1 .825.825v4.331Zm0 0a1.443 1.443 0 0 1-1.444 1.444h-2.062a1.442 1.442 0 0 1-1.401-1.096l-.871.871a1.434 1.434 0 0 1-1.018.446 1.43 1.43 0 0 1-1.047-.423 1.43 1.43 0 0 1-.407-.81v1.837a.825.825 0 0 0 .825.825h6.6a.825.825 0 0 0 .825-.825v-2.269Z"/>
        <path fill="#52525B" d="M152.649 158.287h113.845v1.65H152.649z"/>
        <g clip-path="url(#g)">
          <path fill="#32FFDC" fill-rule="evenodd" d="M281.344 164.887a5.776 5.776 0 1 0-.001-11.552 5.776 5.776 0 0 0 .001 11.552Zm3.171-7.253a.617.617 0 0 0-.111-.869.62.62 0 0 0-.869.112l-3.052 3.951-1.361-1.512a.617.617 0 0 0-1.028.141.617.617 0 0 0 .109.687l1.857 2.063c.06.067.135.12.218.156a.631.631 0 0 0 .524-.02.61.61 0 0 0 .206-.172l3.507-4.537Z" clip-rule="evenodd"/>
        </g>
        <g clip-path="url(#h)">
          <path fill="#A1A1AA" stroke="#A1A1AA" stroke-width="1.65" d="m133.884 174.58 3.915-2.237 3.915 2.237-3.915 2.237-3.915-2.237Z"/>
          <mask id="i" fill="#fff">
            <path d="m133.319 176.635-.158.091a.618.618 0 0 0 0 1.074l4.331 2.475a.623.623 0 0 0 .614 0l4.331-2.475a.616.616 0 0 0 .229-.848.616.616 0 0 0-.229-.227l-.158-.091-3.559 2.034a1.86 1.86 0 0 1-1.842 0l-3.559-2.033Z"/>
          </mask>
          <path fill="#A1A1AA" d="m133.319 176.635-.158.091a.618.618 0 0 0 0 1.074l4.331 2.475a.623.623 0 0 0 .614 0l4.331-2.475a.616.616 0 0 0 .229-.848.616.616 0 0 0-.229-.227l-.158-.091-3.559 2.034a1.86 1.86 0 0 1-1.842 0l-3.559-2.033Z"/>
          <path fill="#A1A1AA" d="m133.319 176.635.819-1.433-.82-.468-.819.469.82 1.432Zm-.158.091.819 1.432.001-.001-.82-1.431Zm0 1.074-.819 1.432.819-1.432Zm4.331 2.475-.819 1.432.001.001.818-1.433Zm.614 0 .818 1.433.001-.001-.819-1.432Zm4.331-2.475-.817-1.433h-.001l.818 1.433Zm.312-.538h-1.65 1.65Zm-.312-.537-.82 1.432.003.001.817-1.433Zm-.158-.091.82-1.432-.819-.469-.82.469.819 1.432Zm-3.559 2.034.818 1.433v-.001l-.818-1.432Zm-1.842 0 .819-1.433-.819 1.433Zm-4.379-3.465-.158.091 1.64 2.863.159-.09-1.641-2.864Zm-.157.091a2.26 2.26 0 0 0-.836.831l2.854 1.655a1.028 1.028 0 0 1-.38.378l-1.638-2.864Zm-.836.831a2.261 2.261 0 0 0-.307 1.138h3.3c0 .182-.048.36-.139.517l-2.854-1.655Zm-.307 1.138c0 .4.106.792.307 1.138l2.854-1.656c.091.158.139.336.139.518h-3.3Zm.307 1.138c.2.346.489.633.836.831l1.638-2.864c.158.09.289.22.38.377l-2.854 1.656Zm.836.831 4.331 2.475 1.638-2.865-4.332-2.475-1.637 2.865Zm4.332 2.476c.342.195.73.298 1.125.298v-3.3c.179 0 .356.047.512.136l-1.637 2.866Zm1.125.298c.395 0 .783-.103 1.125-.298l-1.636-2.866c.155-.089.332-.136.511-.136v3.3Zm1.126-.299 4.331-2.475-1.637-2.865-4.332 2.475 1.638 2.865Zm4.33-2.474a2.27 2.27 0 0 0 .837-.831l-2.853-1.658c.091-.157.223-.287.381-.377l1.635 2.866Zm.837-.831c.201-.346.307-.739.307-1.14h-3.3c0-.182.049-.36.14-.518l2.853 1.658Zm.307-1.14c0-.4-.106-.793-.307-1.139l-2.853 1.657a1.035 1.035 0 0 1-.14-.518h3.3Zm-.307-1.139a2.27 2.27 0 0 0-.837-.831l-1.635 2.866c-.158-.09-.29-.22-.381-.378l2.853-1.657Zm-.835-.83-.158-.091-1.64 2.864.158.091 1.64-2.864Zm-1.797-.091-3.559 2.033 1.637 2.865 3.559-2.033-1.637-2.865Zm-3.559 2.033a.202.202 0 0 1-.102.027v3.3c.61 0 1.209-.159 1.739-.461l-1.637-2.866Zm-.102.027a.202.202 0 0 1-.102-.027l-1.637 2.866c.53.302 1.129.461 1.739.461v-3.3Zm-.102-.027-3.559-2.033-1.637 2.866 3.559 2.033 1.637-2.866Z" mask="url(#i)"/>
          <mask id="j" fill="#fff">
            <path d="m133.161 179.407.158-.091 3.559 2.033a1.86 1.86 0 0 0 1.842 0l3.559-2.034.158.091a.616.616 0 0 1 .229.848.616.616 0 0 1-.229.227l-4.331 2.475a.624.624 0 0 1-.614 0l-4.331-2.475a.616.616 0 0 1-.229-.848.616.616 0 0 1 .229-.227v.001Z"/>
          </mask>
          <path fill="#A1A1AA" d="m133.161 179.407.158-.091 3.559 2.033a1.86 1.86 0 0 0 1.842 0l3.559-2.034.158.091a.616.616 0 0 1 .229.848.616.616 0 0 1-.229.227l-4.331 2.475a.624.624 0 0 1-.614 0l-4.331-2.475a.616.616 0 0 1-.229-.848.616.616 0 0 1 .229-.227v.001Z"/>
          <path fill="#A1A1AA" d="M133.161 179.407h-1.65v2.847l2.47-1.415-.82-1.432Zm.158-.091.819-1.433-.82-.468-.819.469.82 1.432Zm3.559 2.033.819-1.433-.819 1.433Zm1.842 0 .818 1.433-.818-1.433Zm3.559-2.034.82-1.431-.819-.47-.82.469.819 1.432Zm.158.091-.82 1.432.003.001.817-1.433Zm0 1.075-.817-1.433h-.001l.818 1.433Zm-4.331 2.475.818 1.433h.001l-.819-1.433Zm-.614 0-.819 1.433h.001l.818-1.433Zm-4.331-2.475.818-1.433h-.001l-.817 1.433Zm-.312-.537h1.65-1.65Zm.312-.538h1.65v-2.84l-2.468 1.407.818 1.433Zm.82 1.433.158-.091-1.64-2.864-.158.091 1.64 2.864Zm-1.48-.09 3.559 2.033 1.637-2.866-3.559-2.033-1.637 2.866Zm3.559 2.033c.53.302 1.129.461 1.739.461v-3.3a.202.202 0 0 1-.102-.027l-1.637 2.866Zm1.739.461c.61 0 1.209-.159 1.739-.461l-1.637-2.866a.202.202 0 0 1-.102.027v3.3Zm1.739-.461 3.559-2.034-1.637-2.865-3.559 2.033 1.637 2.866Zm1.921-2.035.158.091 1.64-2.864-.158-.09-1.64 2.863Zm.161.092c-.158-.09-.29-.22-.381-.377l2.853-1.658a2.27 2.27 0 0 0-.837-.831l-1.635 2.866Zm-.381-.377a1.04 1.04 0 0 1-.14-.518h3.3c0-.401-.106-.794-.307-1.14l-2.853 1.658Zm-.14-.518c0-.182.049-.361.14-.518l2.853 1.657c.201-.346.307-.739.307-1.139h-3.3Zm.14-.518c.091-.158.223-.288.381-.378l1.635 2.866a2.27 2.27 0 0 0 .837-.831l-2.853-1.657Zm.38-.378-4.332 2.475 1.638 2.866 4.331-2.475-1.637-2.866Zm-4.331 2.475c.155-.089.332-.135.511-.135v3.3c.395 0 .783-.103 1.125-.299l-1.636-2.866Zm.511-.135c.179 0 .356.046.512.135l-1.637 2.866c.342.196.73.299 1.125.299v-3.3Zm.512.135-4.332-2.475-1.637 2.866 4.331 2.475 1.638-2.866Zm-4.333-2.475c.158.09.29.22.381.378l-2.853 1.657c.201.346.49.633.837.831l1.635-2.866Zm.381.378c.091.157.14.336.14.518h-3.3c0 .4.106.793.307 1.139l2.853-1.657Zm.14.518c0 .181-.049.36-.14.518l-2.853-1.658a2.269 2.269 0 0 0-.307 1.14h3.3Zm-.14.518a1.028 1.028 0 0 1-.381.377l-1.635-2.866a2.27 2.27 0 0 0-.837.831l2.853 1.658Zm-2.848-1.056v.001h3.3v-.001h-3.3Z" mask="url(#j)"/>
        </g>
        <path fill="#52525B" d="M152.649 176.437h113.845v1.65H152.649z"/>
        <g clip-path="url(#k)">
          <path fill="#32FFDC" fill-rule="evenodd" d="M281.344 183.037a5.776 5.776 0 1 0-.001-11.552 5.776 5.776 0 0 0 .001 11.552Zm3.171-7.253a.616.616 0 0 0-.111-.868.616.616 0 0 0-.869.111l-3.052 3.952-1.361-1.513a.629.629 0 0 0-.429-.213.628.628 0 0 0-.453.158.617.617 0 0 0-.037.884l1.857 2.062a.615.615 0 0 0 .948-.035l3.507-4.538Z" clip-rule="evenodd"/>
        </g>
      </g>
      <rect width="194.695" height="108.9" x="112.224" y="87.337" stroke="url(#l)" stroke-opacity=".05" stroke-width="1.65" rx="4.125"/>
    </g>
    <g clip-path="url(#m)">
      <rect width="196.345" height="110.55" x="111.399" y="208.062" fill="#18181B" rx="4.95"/>
      <g stroke="#F4F4F5" stroke-linecap="round" stroke-linejoin="round" stroke-width="1.805" clip-path="url(#n)">
        <path d="m137.799 224.562 8.8 4.95v9.9l-8.8 4.95-8.8-4.95v-9.9l8.8-4.95ZM137.799 234.461l8.8-4.95M133.618 232.042l8.36-5.06M137.799 234.462v9.9M137.799 234.461l-8.8-4.95"/>
      </g>
      <path fill="#A1A1AA" d="M152.649 227.862h100.222v6.6H152.649zM152.649 237.762h47.646v3.3h-47.646z"/>
      <g filter="url(#o)">
        <circle cx="140.543" cy="217.406" r="78.644" fill="#fff" fill-opacity=".2"/>
      </g>
      <path fill="#A1A1AA" stroke="#A1A1AA" stroke-width="1.65" d="M133.674 264.866v-3.096l2.681 1.569v3.06l-2.681-1.533Zm5.569-1.527 2.681-1.569v3.096l-2.681 1.533v-3.06Zm-1.444-5.54 2.627 1.501-2.627 1.538-2.627-1.538 2.627-1.501Z"/>
      <path fill="#52525B" d="M152.649 261.687h113.845v1.65H152.649z"/>
      <g clip-path="url(#p)">
        <path fill="#32FFDC" fill-rule="evenodd" d="M281.344 268.286a5.775 5.775 0 1 0 .002-11.55 5.775 5.775 0 0 0-.002 11.55Zm3.171-7.252a.618.618 0 1 0-.98-.757l-3.052 3.951-1.361-1.512a.617.617 0 0 0-1.028.141.617.617 0 0 0 .109.687l1.857 2.063a.613.613 0 0 0 .482.204.61.61 0 0 0 .466-.24l3.507-4.537Z" clip-rule="evenodd"/>
      </g>
      <path fill="#A1A1AA" stroke="#A1A1AA" stroke-width="1.65" d="M141.924 281.693a1.443 1.443 0 0 0-1.444-1.444h-2.062c-.226 0-.446.053-.644.151a1.444 1.444 0 0 0-.398-.759l-1.238-1.237v-.001a1.446 1.446 0 0 0-2.041 0v.001a1.443 1.443 0 0 0 0 2.04v.001l.217.217-.209.208a1.452 1.452 0 0 0-.431.834v-4.342a.826.826 0 0 1 .825-.825h6.6a.825.825 0 0 1 .825.825v4.331Zm0 0a1.443 1.443 0 0 1-1.444 1.444h-2.062a1.442 1.442 0 0 1-1.401-1.096l-.871.871a1.433 1.433 0 0 1-1.585.341 1.427 1.427 0 0 1-.797-.798 1.453 1.453 0 0 1-.09-.33v1.837a.825.825 0 0 0 .825.825h6.6a.825.825 0 0 0 .825-.825v-2.269Z"/>
      <path fill="#52525B" d="M152.649 279.837h113.845v1.65H152.649z"/>
      <g clip-path="url(#q)">
        <path fill="#32FFDC" fill-rule="evenodd" d="M281.344 286.437a5.776 5.776 0 1 0-.001-11.552 5.776 5.776 0 0 0 .001 11.552Zm3.171-7.253a.616.616 0 0 0-.111-.869.62.62 0 0 0-.869.112l-3.052 3.951-1.361-1.512a.617.617 0 0 0-1.028.142.608.608 0 0 0-.02.479.627.627 0 0 0 .129.207l1.857 2.063c.06.067.135.12.218.156a.631.631 0 0 0 .524-.02.62.62 0 0 0 .206-.171l3.507-4.538Z" clip-rule="evenodd"/>
      </g>
      <path fill="#A1A1AA" stroke="#A1A1AA" stroke-width="1.65" d="m133.884 296.13 3.915-2.237 3.915 2.237-3.915 2.238-3.915-2.238Z"/>
      <mask id="r" fill="#fff">
        <path d="m133.319 298.185-.158.091a.618.618 0 0 0 0 1.074l4.331 2.475a.623.623 0 0 0 .614 0l4.331-2.475a.616.616 0 0 0 .229-.848.616.616 0 0 0-.229-.227l-.158-.091-3.559 2.034a1.86 1.86 0 0 1-1.842 0l-3.559-2.033Z"/>
      </mask>
      <path fill="#A1A1AA" d="m133.319 298.185-.158.091a.618.618 0 0 0 0 1.074l4.331 2.475a.623.623 0 0 0 .614 0l4.331-2.475a.616.616 0 0 0 .229-.848.616.616 0 0 0-.229-.227l-.158-.091-3.559 2.034a1.86 1.86 0 0 1-1.842 0l-3.559-2.033Z"/>
      <path fill="#A1A1AA" d="m133.319 298.185.819-1.433-.82-.468-.819.469.82 1.432Zm-.158.091.819 1.432.001-.001-.82-1.431Zm0 1.074-.819 1.432v.001l.819-1.433Zm4.331 2.475-.819 1.433h.001l.818-1.433Zm.614 0 .818 1.433h.001l-.819-1.433Zm4.331-2.475-.817-1.433h-.001l.818 1.433Zm.312-.538h-1.65 1.65Zm-.312-.537-.82 1.432.003.001.817-1.433Zm-.158-.091.82-1.431-.819-.47-.82.469.819 1.432Zm-3.559 2.034.818 1.433v-.001l-.818-1.432Zm-1.842 0 .819-1.433-.819 1.433Zm-4.379-3.465-.158.091 1.64 2.863.159-.09-1.641-2.864Zm-.157.091a2.26 2.26 0 0 0-.836.831l2.854 1.655a1.028 1.028 0 0 1-.38.378l-1.638-2.864Zm-.836.831a2.261 2.261 0 0 0-.307 1.138h3.3c0 .182-.048.36-.139.517l-2.854-1.655Zm-.307 1.138c0 .4.106.792.307 1.138l2.854-1.656c.091.158.139.336.139.518h-3.3Zm.307 1.138c.2.346.489.633.836.831l1.638-2.864c.158.09.289.22.38.377l-2.854 1.656Zm.836.832 4.331 2.475 1.638-2.866-4.332-2.475-1.637 2.866Zm4.332 2.475c.342.195.73.298 1.125.298v-3.3c.179 0 .356.047.512.136l-1.637 2.866Zm1.125.298c.395 0 .783-.103 1.125-.298l-1.636-2.866c.155-.089.332-.136.511-.136v3.3Zm1.126-.298 4.331-2.475-1.637-2.866-4.332 2.475 1.638 2.866Zm4.33-2.475a2.27 2.27 0 0 0 .837-.831l-2.853-1.658c.091-.157.223-.287.381-.377l1.635 2.866Zm.837-.831c.201-.346.307-.739.307-1.14h-3.3c0-.182.049-.36.14-.518l2.853 1.658Zm.307-1.14c0-.4-.106-.793-.307-1.139l-2.853 1.657a1.035 1.035 0 0 1-.14-.518h3.3Zm-.307-1.139a2.27 2.27 0 0 0-.837-.831l-1.635 2.866c-.158-.09-.29-.22-.381-.378l2.853-1.657Zm-.835-.83-.158-.09-1.64 2.863.158.091 1.64-2.864Zm-1.797-.091-3.559 2.033 1.637 2.865 3.559-2.033-1.637-2.865Zm-3.559 2.033a.202.202 0 0 1-.102.027v3.3c.61 0 1.209-.159 1.739-.461l-1.637-2.866Zm-.102.027a.202.202 0 0 1-.102-.027l-1.637 2.866c.53.302 1.129.461 1.739.461v-3.3Zm-.102-.027-3.559-2.033-1.637 2.866 3.559 2.033 1.637-2.866Z" mask="url(#r)"/>
      <mask id="s" fill="#fff">
        <path d="m133.161 300.957.158-.091 3.559 2.033a1.86 1.86 0 0 0 1.842 0l3.559-2.034.158.091a.616.616 0 0 1 .229.848.616.616 0 0 1-.229.227l-4.331 2.475a.624.624 0 0 1-.614 0l-4.331-2.475a.616.616 0 0 1-.229-.848.616.616 0 0 1 .229-.227v.001Z"/>
      </mask>
      <path fill="#A1A1AA" d="m133.161 300.957.158-.091 3.559 2.033a1.86 1.86 0 0 0 1.842 0l3.559-2.034.158.091a.616.616 0 0 1 .229.848.616.616 0 0 1-.229.227l-4.331 2.475a.624.624 0 0 1-.614 0l-4.331-2.475a.616.616 0 0 1-.229-.848.616.616 0 0 1 .229-.227v.001Z"/>
      <path fill="#A1A1AA" d="M133.161 300.957h-1.65v2.847l2.47-1.415-.82-1.432Zm.158-.091.819-1.433-.82-.468-.819.47.82 1.431Zm3.559 2.033.819-1.433-.819 1.433Zm1.842 0 .818 1.433-.818-1.433Zm3.559-2.034.82-1.431-.819-.47-.82.469.819 1.432Zm.158.091-.82 1.432.003.001.817-1.433Zm0 1.075-.817-1.433h-.001l.818 1.433Zm-4.331 2.475.818 1.433h.001l-.819-1.433Zm-.614 0-.819 1.433h.001l.818-1.433Zm-4.331-2.475.818-1.433h-.001l-.817 1.433Zm-.312-.537h1.65-1.65Zm.312-.538h1.65v-2.84l-2.468 1.407.818 1.433Zm.82 1.433.158-.091-1.64-2.863-.158.09 1.64 2.864Zm-1.48-.09 3.559 2.033 1.637-2.866-3.559-2.033-1.637 2.866Zm3.559 2.033c.53.302 1.129.461 1.739.461v-3.3a.202.202 0 0 1-.102-.027l-1.637 2.866Zm1.739.461c.61 0 1.209-.159 1.739-.461l-1.637-2.866a.202.202 0 0 1-.102.027v3.3Zm1.739-.461 3.559-2.034-1.637-2.865-3.559 2.033 1.637 2.866Zm1.921-2.035.158.091 1.64-2.864-.158-.09-1.64 2.863Zm.161.092c-.158-.09-.29-.22-.381-.377l2.853-1.658a2.27 2.27 0 0 0-.837-.831l-1.635 2.866Zm-.381-.377a1.037 1.037 0 0 1-.14-.518h3.3c0-.401-.106-.794-.307-1.14l-2.853 1.658Zm-.14-.518c0-.182.049-.361.14-.518l2.853 1.657c.201-.346.307-.739.307-1.139h-3.3Zm.14-.518c.091-.158.223-.288.381-.378l1.635 2.866a2.27 2.27 0 0 0 .837-.831l-2.853-1.657Zm.38-.378-4.332 2.475 1.638 2.866 4.331-2.475-1.637-2.866Zm-4.331 2.475c.155-.089.332-.135.511-.135v3.3c.395 0 .783-.103 1.125-.299l-1.636-2.866Zm.511-.135c.179 0 .356.046.512.135l-1.637 2.866c.342.196.73.299 1.125.299v-3.3Zm.512.135-4.332-2.475-1.637 2.866 4.331 2.475 1.638-2.866Zm-4.333-2.475c.158.09.29.22.381.378l-2.853 1.657c.201.346.49.633.837.831l1.635-2.866Zm.381.378c.091.157.14.336.14.518h-3.3c0 .4.106.793.307 1.139l2.853-1.657Zm.14.518c0 .182-.049.36-.14.518l-2.853-1.658a2.269 2.269 0 0 0-.307 1.14h3.3Zm-.14.518a1.028 1.028 0 0 1-.381.377l-1.635-2.866a2.27 2.27 0 0 0-.837.831l2.853 1.658Zm-2.848-1.056v.001h3.3v-.001h-3.3Z" mask="url(#s)"/>
      <path fill="#52525B" d="M152.649 297.987h113.845v1.65H152.649z"/>
      <g clip-path="url(#t)">
        <path fill="#32FFDC" fill-rule="evenodd" d="M281.344 304.587a5.776 5.776 0 1 0-.001-11.552 5.776 5.776 0 0 0 .001 11.552Zm3.171-7.253a.616.616 0 0 0-.111-.868.616.616 0 0 0-.869.111l-3.052 3.952-1.361-1.513a.629.629 0 0 0-.429-.213.628.628 0 0 0-.453.158.617.617 0 0 0-.037.884l1.857 2.062a.603.603 0 0 0 .482.204.62.62 0 0 0 .466-.239l3.507-4.538Z" clip-rule="evenodd"/>
      </g>
    </g>
    <rect width="194.695" height="108.9" x="112.224" y="208.887" stroke="url(#u)" stroke-opacity=".05" stroke-width="1.65" rx="4.125"/>
    <g opacity=".4">
      <g clip-path="url(#v)">
        <rect width="196.345" height="110.55" x="111.399" y="329.612" fill="#18181B" rx="4.95"/>
        <g stroke="#F4F4F5" stroke-linecap="round" stroke-linejoin="round" stroke-width="1.805" clip-path="url(#w)">
          <path d="m137.799 346.111 8.8 4.95v9.9l-8.8 4.95-8.8-4.95v-9.9l8.8-4.95ZM137.799 356.011l8.8-4.95M133.618 353.592l8.36-5.06M137.799 356.011v9.9M137.799 356.011l-8.8-4.95"/>
        </g>
        <path fill="#A1A1AA" d="M152.649 349.411h100.222v6.6H152.649zM152.649 359.312h47.646v3.3h-47.646z"/>
        <g filter="url(#x)">
          <circle cx="140.543" cy="338.956" r="78.644" fill="#fff" fill-opacity=".2"/>
        </g>
        <path fill="#A1A1AA" stroke="#A1A1AA" stroke-width="1.65" d="M133.674 386.416v-3.096l2.681 1.569v3.059l-2.681-1.532Zm5.569-1.527 2.681-1.569v3.096l-2.681 1.532v-3.059Zm-1.444-5.54 2.627 1.501-2.627 1.538-2.627-1.538 2.627-1.501Z"/>
        <path fill="#52525B" d="M152.649 383.236h113.845v1.65H152.649z"/>
        <g clip-path="url(#y)">
          <path fill="#32FFDC" fill-rule="evenodd" d="M281.344 389.836a5.775 5.775 0 1 0 .002-11.55 5.775 5.775 0 0 0-.002 11.55Zm3.171-7.252a.618.618 0 0 0-.568-.993.622.622 0 0 0-.412.235l-3.052 3.952-1.361-1.512a.617.617 0 0 0-1.028.141.617.617 0 0 0 .109.687l1.857 2.063a.613.613 0 0 0 .482.204.622.622 0 0 0 .466-.24l3.507-4.537Z" clip-rule="evenodd"/>
        </g>
        <path fill="#A1A1AA" stroke="#A1A1AA" stroke-width="1.65" d="M141.924 403.243a1.443 1.443 0 0 0-1.444-1.444h-2.062c-.226 0-.446.053-.644.151a1.444 1.444 0 0 0-.398-.759l-1.238-1.238a1.446 1.446 0 0 0-2.041 0v.001a1.443 1.443 0 0 0 0 2.04v.001l.217.217-.209.208a1.452 1.452 0 0 0-.431.834v-4.342a.826.826 0 0 1 .825-.825h6.6a.825.825 0 0 1 .825.825v4.331Zm0 0a1.443 1.443 0 0 1-1.444 1.444h-2.062a1.446 1.446 0 0 1-1.401-1.096l-.871.871a1.434 1.434 0 0 1-1.018.446 1.449 1.449 0 0 1-1.047-.423 1.43 1.43 0 0 1-.407-.81v1.837a.825.825 0 0 0 .825.825h6.6a.825.825 0 0 0 .825-.825v-2.269Z"/>
        <path fill="#52525B" d="M152.649 401.387h113.845v1.65H152.649z"/>
        <g clip-path="url(#z)">
          <path fill="#32FFDC" fill-rule="evenodd" d="M281.344 407.987a5.776 5.776 0 1 0-.001-11.552 5.776 5.776 0 0 0 .001 11.552Zm3.171-7.253a.617.617 0 0 0-.111-.869.62.62 0 0 0-.869.112l-3.052 3.951-1.361-1.512a.617.617 0 0 0-1.028.141.617.617 0 0 0 .109.687l1.857 2.063c.06.067.135.12.218.156a.631.631 0 0 0 .524-.02.61.61 0 0 0 .206-.172l3.507-4.537Z" clip-rule="evenodd"/>
        </g>
        <g clip-path="url(#A)">
          <path fill="#A1A1AA" stroke="#A1A1AA" stroke-width="1.65" d="m133.884 417.68 3.915-2.237 3.915 2.237-3.915 2.237-3.915-2.237Z"/>
          <mask id="B" fill="#fff">
            <path d="m133.319 419.735-.158.091a.618.618 0 0 0 0 1.074l4.331 2.475a.623.623 0 0 0 .614 0l4.331-2.475a.616.616 0 0 0 .229-.848.616.616 0 0 0-.229-.227l-.158-.091-3.559 2.034a1.86 1.86 0 0 1-1.842 0l-3.559-2.033Z"/>
          </mask>
          <path fill="#A1A1AA" d="m133.319 419.735-.158.091a.618.618 0 0 0 0 1.074l4.331 2.475a.623.623 0 0 0 .614 0l4.331-2.475a.616.616 0 0 0 .229-.848.616.616 0 0 0-.229-.227l-.158-.091-3.559 2.034a1.86 1.86 0 0 1-1.842 0l-3.559-2.033Z"/>
          <path fill="#A1A1AA" d="m133.319 419.735.819-1.433-.82-.468-.819.469.82 1.432Zm-.158.091.819 1.432.001-.001-.82-1.431Zm0 1.074-.819 1.432.819-1.432Zm4.331 2.475-.819 1.432.001.001.818-1.433Zm.614 0 .818 1.433.001-.001-.819-1.432Zm4.331-2.475-.817-1.433h-.001l.818 1.433Zm.312-.538h-1.65 1.65Zm-.312-.537-.82 1.432.003.001.817-1.433Zm-.158-.091.82-1.432-.819-.469-.82.469.819 1.432Zm-3.559 2.034.818 1.432-.818-1.432Zm-1.842 0 .819-1.433-.819 1.433Zm-4.379-3.465-.158.091 1.64 2.863.159-.09-1.641-2.864Zm-.157.091a2.26 2.26 0 0 0-.836.831l2.854 1.655a1.028 1.028 0 0 1-.38.378l-1.638-2.864Zm-.836.831a2.261 2.261 0 0 0-.307 1.138h3.3c0 .181-.048.36-.139.517l-2.854-1.655Zm-.307 1.138c0 .4.106.792.307 1.138l2.854-1.656c.091.158.139.336.139.518h-3.3Zm.307 1.138c.2.346.489.633.836.831l1.638-2.864c.158.09.289.22.38.377l-2.854 1.656Zm.836.831 4.331 2.475 1.638-2.865-4.332-2.475-1.637 2.865Zm4.332 2.476c.342.195.73.298 1.125.298v-3.3c.179 0 .356.047.512.136l-1.637 2.866Zm1.125.298c.395 0 .783-.103 1.125-.298l-1.636-2.866c.155-.089.332-.136.511-.136v3.3Zm1.126-.299 4.331-2.475-1.637-2.865-4.332 2.475 1.638 2.865Zm4.33-2.474a2.27 2.27 0 0 0 .837-.831l-2.853-1.658c.091-.157.223-.287.381-.377l1.635 2.866Zm.837-.831c.201-.346.307-.739.307-1.14h-3.3c0-.182.049-.36.14-.518l2.853 1.658Zm.307-1.14c0-.4-.106-.793-.307-1.139l-2.853 1.657a1.035 1.035 0 0 1-.14-.518h3.3Zm-.307-1.139a2.27 2.27 0 0 0-.837-.831l-1.635 2.866c-.158-.09-.29-.22-.381-.378l2.853-1.657Zm-.835-.83-.158-.091-1.64 2.864.158.091 1.64-2.864Zm-1.797-.091-3.559 2.033 1.637 2.865 3.559-2.033-1.637-2.865Zm-3.559 2.033a.202.202 0 0 1-.102.027v3.3c.61 0 1.209-.159 1.739-.462l-1.637-2.865Zm-.102.027a.202.202 0 0 1-.102-.027l-1.637 2.865c.53.303 1.129.462 1.739.462v-3.3Zm-.102-.027-3.559-2.033-1.637 2.866 3.559 2.033 1.637-2.866Z" mask="url(#B)"/>
          <mask id="C" fill="#fff">
            <path d="m133.161 422.507.158-.091 3.559 2.033a1.86 1.86 0 0 0 1.842 0l3.559-2.034.158.091a.616.616 0 0 1 .229.848.616.616 0 0 1-.229.227l-4.331 2.475a.623.623 0 0 1-.614 0l-4.331-2.475a.616.616 0 0 1-.229-.848.616.616 0 0 1 .229-.227v.001Z"/>
          </mask>
          <path fill="#A1A1AA" d="m133.161 422.507.158-.091 3.559 2.033a1.86 1.86 0 0 0 1.842 0l3.559-2.034.158.091a.616.616 0 0 1 .229.848.616.616 0 0 1-.229.227l-4.331 2.475a.623.623 0 0 1-.614 0l-4.331-2.475a.616.616 0 0 1-.229-.848.616.616 0 0 1 .229-.227v.001Z"/>
          <path fill="#A1A1AA" d="M133.161 422.507h-1.65v2.847l2.47-1.415-.82-1.432Zm.158-.091.819-1.433-.82-.468-.819.469.82 1.432Zm3.559 2.033.819-1.433-.819 1.433Zm1.842 0 .818 1.433-.818-1.433Zm3.559-2.034.82-1.431-.819-.47-.82.469.819 1.432Zm.158.091-.82 1.432.003.001.817-1.433Zm0 1.075-.817-1.433h-.001l.818 1.433Zm-4.331 2.475.818 1.433h.001l-.819-1.433Zm-.614 0-.819 1.433h.001l.818-1.433Zm-4.331-2.475.818-1.433h-.001l-.817 1.433Zm-.312-.537h1.65-1.65Zm.312-.538h1.65v-2.84l-2.468 1.407.818 1.433Zm.82 1.433.158-.091-1.64-2.864-.158.091 1.64 2.864Zm-1.48-.09 3.559 2.033 1.637-2.866-3.559-2.033-1.637 2.866Zm3.559 2.033c.53.302 1.129.461 1.739.461v-3.3a.202.202 0 0 1-.102-.027l-1.637 2.866Zm1.739.461c.61 0 1.209-.159 1.739-.461l-1.637-2.866a.202.202 0 0 1-.102.027v3.3Zm1.739-.461 3.559-2.034-1.637-2.865-3.559 2.033 1.637 2.866Zm1.921-2.035.158.091 1.64-2.864-.158-.09-1.64 2.863Zm.161.092c-.158-.09-.29-.22-.381-.377l2.853-1.658a2.27 2.27 0 0 0-.837-.831l-1.635 2.866Zm-.381-.377a1.04 1.04 0 0 1-.14-.518h3.3c0-.401-.106-.794-.307-1.14l-2.853 1.658Zm-.14-.518c0-.182.049-.361.14-.518l2.853 1.657c.201-.346.307-.739.307-1.139h-3.3Zm.14-.518c.091-.158.223-.288.381-.378l1.635 2.866a2.27 2.27 0 0 0 .837-.831l-2.853-1.657Zm.38-.378-4.332 2.475 1.638 2.866 4.331-2.475-1.637-2.866Zm-4.331 2.475c.155-.089.332-.136.511-.136v3.3c.395 0 .783-.102 1.125-.298l-1.636-2.866Zm.511-.136c.179 0 .356.047.512.136l-1.637 2.866c.342.196.73.298 1.125.298v-3.3Zm.512.136-4.332-2.475-1.637 2.866 4.331 2.475 1.638-2.866Zm-4.333-2.475c.158.09.29.22.381.378l-2.853 1.657c.201.346.49.633.837.831l1.635-2.866Zm.381.378c.091.157.14.336.14.518h-3.3c0 .4.106.793.307 1.139l2.853-1.657Zm.14.518c0 .181-.049.36-.14.518l-2.853-1.658a2.269 2.269 0 0 0-.307 1.14h3.3Zm-.14.518a1.028 1.028 0 0 1-.381.377l-1.635-2.866a2.27 2.27 0 0 0-.837.831l2.853 1.658Zm-2.848-1.056v.001h3.3v-.001h-3.3Z" mask="url(#C)"/>
        </g>
        <path fill="#52525B" d="M152.649 419.537h113.845v1.65H152.649z"/>
        <g clip-path="url(#D)">
          <path fill="#32FFDC" fill-rule="evenodd" d="M281.344 426.137a5.776 5.776 0 1 0-.001-11.552 5.776 5.776 0 0 0 .001 11.552Zm3.171-7.253a.616.616 0 0 0-.111-.869.62.62 0 0 0-.869.112l-3.052 3.952-1.361-1.513a.61.61 0 0 0-.882-.055.617.617 0 0 0-.037.884l1.857 2.062a.615.615 0 0 0 .948-.035l3.507-4.538Z" clip-rule="evenodd"/>
        </g>
      </g>
      <rect width="194.695" height="108.9" x="112.224" y="330.437" stroke="url(#E)" stroke-opacity=".05" stroke-width="1.65" rx="4.125"/>
    </g>
  </g>
  <defs>
    <clipPath id="a">
      <path fill="#fff" d="M0 0h419v525H0z"/>
    </clipPath>
    <clipPath id="c">
      <rect width="196.345" height="110.55" x="111.399" y="86.512" fill="#fff" rx="4.95"/>
    </clipPath>
    <clipPath id="d">
      <path fill="#fff" d="M124.599 99.712h26.4v26.4h-26.4z"/>
    </clipPath>
    <clipPath id="f">
      <path fill="#fff" d="M274.744 134.361h13.2v13.2h-13.2z"/>
    </clipPath>
    <clipPath id="g">
      <path fill="#fff" d="M274.744 152.512h13.2v13.2h-13.2z"/>
    </clipPath>
    <clipPath id="h">
      <path fill="#fff" d="M131.199 170.662h13.2v13.2h-13.2z"/>
    </clipPath>
    <clipPath id="k">
      <path fill="#fff" d="M274.744 170.662h13.2v13.2h-13.2z"/>
    </clipPath>
    <clipPath id="m">
      <rect width="196.345" height="110.55" x="111.399" y="208.062" fill="#fff" rx="4.95"/>
    </clipPath>
    <clipPath id="n">
      <path fill="#fff" d="M124.599 221.262h26.4v26.4h-26.4z"/>
    </clipPath>
    <clipPath id="p">
      <path fill="#fff" d="M274.744 255.911h13.2v13.2h-13.2z"/>
    </clipPath>
    <clipPath id="q">
      <path fill="#fff" d="M274.744 274.062h13.2v13.2h-13.2z"/>
    </clipPath>
    <clipPath id="t">
      <path fill="#fff" d="M274.744 292.212h13.2v13.2h-13.2z"/>
    </clipPath>
    <clipPath id="v">
      <rect width="196.345" height="110.55" x="111.399" y="329.612" fill="#fff" rx="4.95"/>
    </clipPath>
    <clipPath id="w">
      <path fill="#fff" d="M124.599 342.812h26.4v26.4h-26.4z"/>
    </clipPath>
    <clipPath id="y">
      <path fill="#fff" d="M274.744 377.461h13.2v13.2h-13.2z"/>
    </clipPath>
    <clipPath id="z">
      <path fill="#fff" d="M274.744 395.612h13.2v13.2h-13.2z"/>
    </clipPath>
    <clipPath id="A">
      <path fill="#fff" d="M131.199 413.762h13.2v13.2h-13.2z"/>
    </clipPath>
    <clipPath id="D">
      <path fill="#fff" d="M274.744 413.762h13.2v13.2h-13.2z"/>
    </clipPath>
    <filter id="b" width="387.345" height="600.65" x="96.399" y="74.512" color-interpolation-filters="sRGB" filterUnits="userSpaceOnUse">
      <feFlood flood-opacity="0" result="BackgroundImageFix"/>
      <feColorMatrix in="SourceAlpha" result="hardAlpha" values="0 0 0 0 0 0 0 0 0 0 0 0 0 0 0 0 0 0 127 0"/>
      <feOffset dx="5" dy="7"/>
      <feGaussianBlur stdDeviation="9.5"/>
      <feColorMatrix values="0 0 0 0 0 0 0 0 0 0 0 0 0 0 0 0 0 0 0.29 0"/>
      <feBlend in2="BackgroundImageFix" result="effect1_dropShadow_271_23758"/>
      <feColorMatrix in="SourceAlpha" result="hardAlpha" values="0 0 0 0 0 0 0 0 0 0 0 0 0 0 0 0 0 0 127 0"/>
      <feOffset dx="19" dy="28"/>
      <feGaussianBlur stdDeviation="17"/>
      <feColorMatrix values="0 0 0 0 0 0 0 0 0 0 0 0 0 0 0 0 0 0 0.26 0"/>
      <feBlend in2="effect1_dropShadow_271_23758" result="effect2_dropShadow_271_23758"/>
      <feColorMatrix in="SourceAlpha" result="hardAlpha" values="0 0 0 0 0 0 0 0 0 0 0 0 0 0 0 0 0 0 127 0"/>
      <feOffset dx="42" dy="63"/>
      <feGaussianBlur stdDeviation="23"/>
      <feColorMatrix values="0 0 0 0 0 0 0 0 0 0 0 0 0 0 0 0 0 0 0.15 0"/>
      <feBlend in2="effect2_dropShadow_271_23758" result="effect3_dropShadow_271_23758"/>
      <feColorMatrix in="SourceAlpha" result="hardAlpha" values="0 0 0 0 0 0 0 0 0 0 0 0 0 0 0 0 0 0 127 0"/>
      <feOffset dx="75" dy="113"/>
      <feGaussianBlur stdDeviation="27"/>
      <feColorMatrix values="0 0 0 0 0 0 0 0 0 0 0 0 0 0 0 0 0 0 0.04 0"/>
      <feBlend in2="effect3_dropShadow_271_23758" result="effect4_dropShadow_271_23758"/>
      <feColorMatrix in="SourceAlpha" result="hardAlpha" values="0 0 0 0 0 0 0 0 0 0 0 0 0 0 0 0 0 0 127 0"/>
      <feOffset dx="117" dy="176"/>
      <feGaussianBlur stdDeviation="29.5"/>
      <feColorMatrix values="0 0 0 0 0 0 0 0 0 0 0 0 0 0 0 0 0 0 0.01 0"/>
      <feBlend in2="effect4_dropShadow_271_23758" result="effect5_dropShadow_271_23758"/>
      <feBlend in="SourceGraphic" in2="effect5_dropShadow_271_23758" result="shape"/>
    </filter>
    <filter id="e" width="652.288" height="652.288" x="-185.601" y="-230.288" color-interpolation-filters="sRGB" filterUnits="userSpaceOnUse">
      <feFlood flood-opacity="0" result="BackgroundImageFix"/>
      <feBlend in="SourceGraphic" in2="BackgroundImageFix" result="shape"/>
      <feGaussianBlur result="effect1_foregroundBlur_271_23758" stdDeviation="123.75"/>
    </filter>
    <filter id="o" width="652.288" height="652.288" x="-185.601" y="-108.738" color-interpolation-filters="sRGB" filterUnits="userSpaceOnUse">
      <feFlood flood-opacity="0" result="BackgroundImageFix"/>
      <feBlend in="SourceGraphic" in2="BackgroundImageFix" result="shape"/>
      <feGaussianBlur result="effect1_foregroundBlur_271_23758" stdDeviation="123.75"/>
    </filter>
    <filter id="x" width="652.288" height="652.288" x="-185.601" y="12.812" color-interpolation-filters="sRGB" filterUnits="userSpaceOnUse">
      <feFlood flood-opacity="0" result="BackgroundImageFix"/>
      <feBlend in="SourceGraphic" in2="BackgroundImageFix" result="shape"/>
      <feGaussianBlur result="effect1_foregroundBlur_271_23758" stdDeviation="123.75"/>
    </filter>
    <linearGradient id="l" x1="142.933" x2="222.238" y1="104.265" y2="245.117" gradientUnits="userSpaceOnUse">
      <stop stop-color="#fff" stop-opacity="0"/>
      <stop offset=".292" stop-color="#fff"/>
      <stop offset=".729" stop-color="#fff"/>
      <stop offset="1" stop-color="#fff" stop-opacity="0"/>
    </linearGradient>
    <linearGradient id="u" x1="142.933" x2="222.238" y1="225.815" y2="366.667" gradientUnits="userSpaceOnUse">
      <stop stop-color="#fff" stop-opacity="0"/>
      <stop offset=".292" stop-color="#fff"/>
      <stop offset=".729" stop-color="#fff"/>
      <stop offset="1" stop-color="#fff" stop-opacity="0"/>
    </linearGradient>
    <linearGradient id="E" x1="142.933" x2="222.238" y1="347.365" y2="488.217" gradientUnits="userSpaceOnUse">
      <stop stop-color="#fff" stop-opacity="0"/>
      <stop offset=".292" stop-color="#fff"/>
      <stop offset=".729" stop-color="#fff"/>
      <stop offset="1" stop-color="#fff" stop-opacity="0"/>
    </linearGradient>
  </defs>
</svg>