<svg xmlns="http://www.w3.org/2000/svg" width="420" height="257" fill="none" viewBox="0 0 420 257">
  <g class="Ill_1 - managed_cloud_hosting" clip-path="url(#a)">
    <g class="Frame 1000003972" filter="url(#b)">
      <g class="Frame 1000003968" clip-path="url(#c)">
        <rect width="187.386" height="30.719" x="115.879" y="55.649" fill="#18181B" rx="5"/>
        <g class="Ellipse 1115" filter="url(#d)">
          <circle cx="128.544" cy="66.314" r="57.665" fill="#fff" fill-opacity=".2"/>
        </g>
        <g class="Frame 1000003969">
          <g class="Frame">
            <path fill="#32FFDC" fill-rule="evenodd" d="M131.75 64.566a.768.768 0 0 0-1.024 0 9.177 9.177 0 0 1-4.956 2.27.765.765 0 0 0-.669.738 10.746 10.746 0 0 0 5.782 9.904.769.769 0 0 0 .711-.001 10.757 10.757 0 0 0 5.782-9.904.767.767 0 0 0-.67-.736 9.18 9.18 0 0 1-4.956-2.27Zm2.396 5.636a.768.768 0 0 0-1.208-.948l-2.32 2.952-1.184-1.014a.77.77 0 0 0-1.195.93.769.769 0 0 0 .196.236l1.792 1.536a.76.76 0 0 0 .575.181.769.769 0 0 0 .528-.29l2.816-3.583Z" class="Vector" clip-rule="evenodd"/>
          </g>
          <path fill="#52525B" d="M146.598 67.937h55.074v6.144h-55.074z" class="Rectangle 9251"/>
        </g>
        <g class="Frame">
          <path fill="#52525B" fill-rule="evenodd" d="M292.427 66.274a.766.766 0 0 1 .213 1.065l-5.12 7.68a.769.769 0 0 1-1.181.116l-3.072-3.072a.768.768 0 0 1 1.085-1.085l2.409 2.41 4.601-6.902a.767.767 0 0 1 1.065-.212Z" class="Vector" clip-rule="evenodd"/>
        </g>
      </g>
      <g class="Frame 1000003969" clip-path="url(#e)">
        <rect width="187.386" height="30.719" x="115.879" y="93.868" fill="#18181B" rx="5"/>
        <g class="Ellipse 1115" filter="url(#f)">
          <circle cx="126.544" cy="104.314" r="57.665" fill="#fff" fill-opacity=".2"/>
        </g>
        <g class="Frame 1000003969">
          <g class="Frame">
            <path fill="#52525B" fill-rule="evenodd" d="M137.214 103.573a.766.766 0 0 1 .768.768v3.258a.77.77 0 0 1-.768.768h-3.258a.767.767 0 1 1 0-1.536h1.402l-.86-.861a4.601 4.601 0 0 0-3.86-1.311 4.602 4.602 0 0 0-3.389 2.265.772.772 0 0 1-1.05.282.772.772 0 0 1-.282-1.05 6.157 6.157 0 0 1 4.52-3.02 6.144 6.144 0 0 1 5.147 1.748l.862.86v-1.403a.77.77 0 0 1 .768-.768Zm-.933 7.679a.771.771 0 0 1 .281 1.048 6.154 6.154 0 0 1-4.52 3.019 6.142 6.142 0 0 1-5.147-1.748l-.86-.861v1.404a.767.767 0 1 1-1.536 0v-3.257a.767.767 0 0 1 .768-.768h3.257a.766.766 0 0 1 .544 1.311.772.772 0 0 1-.544.225h-1.402l.861.861a4.615 4.615 0 0 0 5.819.574 4.605 4.605 0 0 0 1.43-1.528.776.776 0 0 1 .467-.357.766.766 0 0 1 .582.077Z" class="Vector" clip-rule="evenodd"/>
          </g>
          <path fill="#52525B" d="M146.598 106.156h41.281v6.144h-41.281z" class="Rectangle 9251"/>
        </g>
        <g class="Frame">
          <path fill="#32FFDC" fill-rule="evenodd" d="M292.427 104.493a.765.765 0 0 1 .213 1.064l-5.12 7.68a.758.758 0 0 1-.563.338.774.774 0 0 1-.618-.221l-3.072-3.072a.765.765 0 0 1 .019-1.067.765.765 0 0 1 1.066-.018l2.41 2.409 4.6-6.901a.77.77 0 0 1 1.065-.212Z" class="Vector" clip-rule="evenodd"/>
        </g>
      </g>
      <g class="Frame 1000003970" clip-path="url(#g)">
        <rect width="187.386" height="30.719" x="115.879" y="132.087" fill="#18181B" rx="5"/>
        <g class="Ellipse 1115" filter="url(#h)">
          <circle cx="125.544" cy="142.315" r="57.665" fill="#fff" fill-opacity=".2"/>
        </g>
        <g class="Frame 1000003969">
          <g class="Frame">
            <path fill="#32FFDC" d="M128.678 142.839a1.539 1.539 0 0 1 1.536-1.536h2.948c.407 0 .798.162 1.086.45l2.172 2.171a1.534 1.534 0 0 1 .45 1.086v3.972a1.535 1.535 0 0 1-1.536 1.536v-2.436c0-.814-.324-1.596-.9-2.172l-2.172-2.171a3.067 3.067 0 0 0-2.172-.9h-1.412Z" class="Vector"/>
            <path fill="#32FFDC" d="M127.142 144.374a1.537 1.537 0 0 0-1.536 1.536v6.144a1.537 1.537 0 0 0 1.536 1.536h5.12a1.537 1.537 0 0 0 1.536-1.536v-3.972a1.53 1.53 0 0 0-.451-1.085l-2.17-2.173a1.538 1.538 0 0 0-1.088-.45h-2.947Z" class="Vector"/>
          </g>
          <path fill="#52525B" d="M146.598 144.375h34.815v6.144h-34.815z" class="Rectangle 9251"/>
        </g>
        <g class="Frame">
          <path fill="#52525B" fill-rule="evenodd" d="M292.427 142.712a.765.765 0 0 1 .213 1.064l-5.12 7.68a.758.758 0 0 1-.563.338.774.774 0 0 1-.618-.221l-3.072-3.072a.77.77 0 0 1 .018-1.067.77.77 0 0 1 1.067-.018l2.409 2.409 4.601-6.901a.767.767 0 0 1 1.065-.212Z" class="Vector" clip-rule="evenodd"/>
        </g>
      </g>
      <g class="Frame 1000003971" clip-path="url(#i)">
        <rect width="187.386" height="30.719" x="115.879" y="170.306" fill="#18181B" rx="5"/>
        <g class="Ellipse 1115" filter="url(#j)">
          <circle cx="125.544" cy="181.314" r="57.665" fill="#fff" fill-opacity=".2"/>
        </g>
        <g class="Frame 1000003969">
          <g class="Frame">
            <path fill="#32FFDC" fill-rule="evenodd" d="M124.07 185.665a7.167 7.167 0 1 1 14.335 0 7.167 7.167 0 0 1-14.335 0Zm7.936-4.351a.767.767 0 1 0-1.536 0v4.351c0 .424.344.768.768.768h3.328a.767.767 0 1 0 0-1.536h-2.56v-3.583Z" class="Vector" clip-rule="evenodd"/>
          </g>
          <path fill="#52525B" d="M146.598 182.594h70.591v6.144h-70.591z" class="Rectangle 9251"/>
        </g>
        <g class="Frame">
          <path fill="#52525B" fill-rule="evenodd" d="M292.427 180.931a.768.768 0 0 1 .213 1.064l-5.12 7.68a.751.751 0 0 1-.244.232.754.754 0 0 1-.653.065.776.776 0 0 1-.285-.18l-3.072-3.072a.774.774 0 0 1-.206-.537.77.77 0 0 1 1.292-.548l2.409 2.409 4.601-6.901a.767.767 0 0 1 1.065-.212Z" class="Vector" clip-rule="evenodd"/>
        </g>
      </g>
    </g>
  </g>
  <defs>
    <clipPath id="a" class="a">
      <path fill="#fff" d="M0 0h419.143v256.674H0z"/>
    </clipPath>
    <clipPath id="c" class="c">
      <rect width="187.386" height="30.719" x="115.879" y="55.649" fill="#fff" rx="5"/>
    </clipPath>
    <clipPath id="e" class="e">
      <rect width="187.386" height="30.719" x="115.879" y="93.868" fill="#fff" rx="5"/>
    </clipPath>
    <clipPath id="g" class="g">
      <rect width="187.386" height="30.719" x="115.879" y="132.087" fill="#fff" rx="5"/>
    </clipPath>
    <clipPath id="i" class="i">
      <rect width="187.386" height="30.719" x="115.879" y="170.306" fill="#fff" rx="5"/>
    </clipPath>
    <filter id="b" width="317.385" height="246.376" x="109.879" y="47.649" class="b" color-interpolation-filters="sRGB" filterUnits="userSpaceOnUse">
      <feFlood flood-opacity="0" result="BackgroundImageFix"/>
      <feColorMatrix in="SourceAlpha" result="hardAlpha" values="0 0 0 0 0 0 0 0 0 0 0 0 0 0 0 0 0 0 127 0"/>
      <feOffset dx="4" dy="2"/>
      <feGaussianBlur stdDeviation="5"/>
      <feColorMatrix values="0 0 0 0 0 0 0 0 0 0 0 0 0 0 0 0 0 0 0.29 0"/>
      <feBlend in2="BackgroundImageFix" result="effect1_dropShadow_141_10427"/>
      <feColorMatrix in="SourceAlpha" result="hardAlpha" values="0 0 0 0 0 0 0 0 0 0 0 0 0 0 0 0 0 0 127 0"/>
      <feOffset dx="15" dy="10"/>
      <feGaussianBlur stdDeviation="9"/>
      <feColorMatrix values="0 0 0 0 0 0 0 0 0 0 0 0 0 0 0 0 0 0 0.26 0"/>
      <feBlend in2="effect1_dropShadow_141_10427" result="effect2_dropShadow_141_10427"/>
      <feColorMatrix in="SourceAlpha" result="hardAlpha" values="0 0 0 0 0 0 0 0 0 0 0 0 0 0 0 0 0 0 127 0"/>
      <feOffset dx="34" dy="22"/>
      <feGaussianBlur stdDeviation="12"/>
      <feColorMatrix values="0 0 0 0 0 0 0 0 0 0 0 0 0 0 0 0 0 0 0.15 0"/>
      <feBlend in2="effect2_dropShadow_141_10427" result="effect3_dropShadow_141_10427"/>
      <feColorMatrix in="SourceAlpha" result="hardAlpha" values="0 0 0 0 0 0 0 0 0 0 0 0 0 0 0 0 0 0 127 0"/>
      <feOffset dx="60" dy="40"/>
      <feGaussianBlur stdDeviation="14.5"/>
      <feColorMatrix values="0 0 0 0 0 0 0 0 0 0 0 0 0 0 0 0 0 0 0.04 0"/>
      <feBlend in2="effect3_dropShadow_141_10427" result="effect4_dropShadow_141_10427"/>
      <feColorMatrix in="SourceAlpha" result="hardAlpha" values="0 0 0 0 0 0 0 0 0 0 0 0 0 0 0 0 0 0 127 0"/>
      <feOffset dx="93" dy="62"/>
      <feGaussianBlur stdDeviation="15.5"/>
      <feColorMatrix values="0 0 0 0 0 0 0 0 0 0 0 0 0 0 0 0 0 0 0.01 0"/>
      <feBlend in2="effect4_dropShadow_141_10427" result="effect5_dropShadow_141_10427"/>
      <feBlend in="SourceGraphic" in2="effect5_dropShadow_141_10427" result="shape"/>
    </filter>
    <filter id="d" width="355.33" height="355.33" x="-49.121" y="-111.351" class="d" color-interpolation-filters="sRGB" filterUnits="userSpaceOnUse">
      <feFlood flood-opacity="0" result="BackgroundImageFix"/>
      <feBlend in="SourceGraphic" in2="BackgroundImageFix" result="shape"/>
      <feGaussianBlur result="effect1_foregroundBlur_141_10427" stdDeviation="60"/>
    </filter>
    <filter id="f" width="355.33" height="355.33" x="-51.121" y="-73.351" class="f" color-interpolation-filters="sRGB" filterUnits="userSpaceOnUse">
      <feFlood flood-opacity="0" result="BackgroundImageFix"/>
      <feBlend in="SourceGraphic" in2="BackgroundImageFix" result="shape"/>
      <feGaussianBlur result="effect1_foregroundBlur_141_10427" stdDeviation="60"/>
    </filter>
    <filter id="h" width="355.33" height="355.33" x="-52.121" y="-35.35" class="h" color-interpolation-filters="sRGB" filterUnits="userSpaceOnUse">
      <feFlood flood-opacity="0" result="BackgroundImageFix"/>
      <feBlend in="SourceGraphic" in2="BackgroundImageFix" result="shape"/>
      <feGaussianBlur result="effect1_foregroundBlur_141_10427" stdDeviation="60"/>
    </filter>
    <filter id="j" width="355.33" height="355.33" x="-52.121" y="3.649" class="j" color-interpolation-filters="sRGB" filterUnits="userSpaceOnUse">
      <feFlood flood-opacity="0" result="BackgroundImageFix"/>
      <feBlend in="SourceGraphic" in2="BackgroundImageFix" result="shape"/>
      <feGaussianBlur result="effect1_foregroundBlur_141_10427" stdDeviation="60"/>
    </filter>
  </defs>
</svg>
