<svg xmlns="http://www.w3.org/2000/svg" width="24" height="24" fill="none" viewBox="0 0 24 24">
  <path fill="#18181B" d="m3 12-.707-.707a1 1 0 0 0 0 1.414L3 12Zm6.414 6.414.707-.707-.707.707Zm0-12.828.707.707-.707-.707Zm1.879 7.707a1 1 0 0 0 1.414 1.414l-1.414-1.414Zm5.414-2.586a1 1 0 0 0-1.414-1.414l1.414 1.414Zm-4-1.414a1 1 0 1 0-1.414 1.414l1.414-1.414Zm2.586 5.414a1 1 0 0 0 1.414-1.414l-1.414 1.414ZM10.828 6H19V4h-8.172v2ZM20 7v10h2V7h-2Zm-1 11h-8.172v2H19v-2Zm-8.879-.293-6.414-6.414-1.414 1.414 6.414 6.414 1.414-1.414Zm-6.414-5 6.414-6.414-1.414-1.414-6.414 6.414 1.414 1.414ZM10.828 18a1 1 0 0 1-.707-.293l-1.414 1.414a3 3 0 0 0 2.121.879v-2ZM20 17a1 1 0 0 1-1 1v2a3 3 0 0 0 3-3h-2ZM19 6a1 1 0 0 1 1 1h2a3 3 0 0 0-3-3v2Zm-8.172-2a3 3 0 0 0-2.12.879l1.413 1.414A1 1 0 0 1 10.828 6V4Zm1.88 10.707 2-2-1.415-1.414-2 2 1.414 1.414Zm2-2 2-2-1.415-1.414-2 2 1.414 1.414Zm-3.415-2 2 2 1.414-1.414-2-2-1.414 1.414Zm2 2 2 2 1.414-1.414-2-2-1.414 1.414Z"/>
</svg>
