<svg xmlns="http://www.w3.org/2000/svg" width="24" height="25" fill="none" viewBox="0 0 24 25">
  <path stroke="currentColor" stroke-linecap="round" stroke-linejoin="round" stroke-width="2" d="M21 21.924h-.692a2.769 2.769 0 0 1-2.77-2.77 2.77 2.77 0 0 1-5.538 0 2.77 2.77 0 0 1-5.538 0 2.77 2.77 0 0 1-2.77 2.77H3m13.154-5.538a7.602 7.602 0 0 0-11.742 0"/>
  <path stroke="currentColor" stroke-linecap="round" stroke-linejoin="round" stroke-width="2" d="M11.308 13.686c.083-3.13 1.038-5.982 3.115-7.006m-4.139-2.631a3.572 3.572 0 0 1 4.153 2.63"/>
  <path stroke="currentColor" stroke-linecap="round" stroke-linejoin="round" stroke-width="2" d="M19.491 7.192a3.85 3.85 0 0 0-5.067-.512"/>
  <path stroke="currentColor" stroke-linecap="round" stroke-linejoin="round" stroke-width="2" d="M9.342 8.161a4.154 4.154 0 0 1 5.082-1.481 3.53 3.53 0 0 1 2.617 4.153"/>
</svg>
