<svg xmlns="http://www.w3.org/2000/svg" width="24" height="24" fill="none" viewBox="0 0 24 24">
  <path fill="#18181B" d="M9 6a1 1 0 0 0 0 2V6Zm6 2a1 1 0 1 0 0-2v2Zm-1 9a1 1 0 1 0 2 0h-2Zm2-3a1 1 0 1 0-2 0h2Zm-4 2a1 1 0 1 0 0 2v-2Zm.01 2a1 1 0 1 0 0-2v2ZM9 16a1 1 0 1 0 0 2v-2Zm.01 2a1 1 0 1 0 0-2v2ZM9 13a1 1 0 1 0 0 2v-2Zm.01 2a1 1 0 1 0 0-2v2ZM12 13a1 1 0 1 0 0 2v-2Zm.01 2a1 1 0 1 0 0-2v2ZM15 10a1 1 0 1 0 0 2v-2Zm.01 2a1 1 0 1 0 0-2v2ZM12 10a1 1 0 1 0 0 2v-2Zm.01 2a1 1 0 1 0 0-2v2ZM9 10a1 1 0 1 0 0 2v-2Zm.01 2a1 1 0 1 0 0-2v2ZM7 4h10V2H7v2Zm11 1v14h2V5h-2Zm-1 15H7v2h10v-2ZM6 19V5H4v14h2Zm1 1a1 1 0 0 1-1-1H4a3 3 0 0 0 3 3v-2Zm11-1a1 1 0 0 1-1 1v2a3 3 0 0 0 3-3h-2ZM17 4a1 1 0 0 1 1 1h2a3 3 0 0 0-3-3v2ZM7 2a3 3 0 0 0-3 3h2a1 1 0 0 1 1-1V2Zm2 6h6V6H9v2Zm7 9v-3h-2v3h2Zm-4 1h.01v-2H12v2Zm-3 0h.01v-2H9v2Zm0-3h.01v-2H9v2Zm3 0h.01v-2H12v2Zm3-3h.01v-2H15v2Zm-3 0h.01v-2H12v2Zm-3 0h.01v-2H9v2Z"/>
</svg>
