<svg xmlns="http://www.w3.org/2000/svg" width="24" height="24" fill="none" viewBox="0 0 24 24">
  <path fill="#18181B" d="M13.293 3.293 12.586 4l.707-.707Zm5.414 5.414L19.414 8l-.707.707ZM10 20a1 1 0 1 0 0 2v-2Zm-6-4a1 1 0 1 0 2 0H4Zm.293 4.293a1 1 0 1 0 1.414 1.414l-1.414-1.414ZM7 4h5.586V2H7v2Zm11 5.414V19h2V9.414h-2ZM12.586 4 18 9.414 19.414 8 14 2.586 12.586 4ZM20 9.414A2 2 0 0 0 19.414 8L18 9.414h2ZM12.586 4 14 2.586A2 2 0 0 0 12.586 2v2ZM17 22a3 3 0 0 0 3-3h-2a1 1 0 0 1-1 1v2ZM6 5a1 1 0 0 1 1-1V2a3 3 0 0 0-3 3h2Zm11 15h-7v2h7v-2ZM6 16V5H4v11h2Zm8-2a2 2 0 0 1-2 2v2a4 4 0 0 0 4-4h-2Zm-4 0a2 2 0 0 1 2-2v-2a4 4 0 0 0-4 4h2Zm2-2a2 2 0 0 1 2 2h2a4 4 0 0 0-4-4v2Zm-2.828 3.414-4.88 4.879 1.415 1.414 4.879-4.879-1.414-1.414ZM12 16a1.99 1.99 0 0 1-1.414-.586l-1.414 1.414A3.99 3.99 0 0 0 12 18v-2Zm-1.414-.586A1.99 1.99 0 0 1 10 14H8a3.99 3.99 0 0 0 1.172 2.828l1.414-1.414Z"/>
</svg>
