<svg xmlns="http://www.w3.org/2000/svg" width="24" height="25" fill="none" viewBox="0 0 24 25">
  <path stroke="currentColor" stroke-linecap="round" stroke-linejoin="round" stroke-width="2" d="M9.577 3.803H3.692A.692.692 0 0 0 3 4.496v5.884c0 .382.31.692.692.692h5.885c.382 0 .692-.31.692-.692V4.496a.692.692 0 0 0-.692-.693Zm10.731 0h-5.885a.692.692 0 0 0-.692.693v5.884c0 .382.31.692.692.692h5.885c.382 0 .692-.31.692-.692V4.496a.692.692 0 0 0-.692-.693ZM9.577 14.534H3.692a.692.692 0 0 0-.692.693v5.884c0 .383.31.693.692.693h5.885c.382 0 .692-.31.692-.693v-5.884a.692.692 0 0 0-.692-.693Zm10.731 0h-5.885a.692.692 0 0 0-.692.693v5.884c0 .383.31.693.692.693h5.885c.382 0 .692-.31.692-.693v-5.884a.692.692 0 0 0-.692-.693ZM3 7.957h7.27m3.461 0h7.27m-7.27 10.731h7.27M3 18.688h7.27"/>
</svg>
