<svg xmlns="http://www.w3.org/2000/svg" width="24" height="25" fill="none" viewBox="0 0 24 25">
  <path stroke="currentColor" stroke-linecap="round" stroke-linejoin="round" stroke-width="2" d="M17.786 4.625h1.285a1.286 1.286 0 0 1 1.286 1.285v1.286m-16.714 0V5.91A1.286 1.286 0 0 1 4.93 4.625h1.285m3.856 0h3.857m6.429 6.428v3.857M3.643 11.053v3.857m14.143 6.429h1.285a1.286 1.286 0 0 0 1.286-1.286v-1.285m-16.714 0v1.285A1.286 1.286 0 0 0 4.93 21.34h1.285"/>
  <path stroke="currentColor" stroke-linecap="round" stroke-linejoin="round" stroke-width="1.286" d="M10.071 21.339h3.857"/>
  <path stroke="currentColor" stroke-linecap="round" stroke-linejoin="round" stroke-width="2" d="M14.572 9.125H9.429c-.71 0-1.286.575-1.286 1.285v5.143c0 .71.576 1.286 1.286 1.286h5.143c.71 0 1.285-.576 1.285-1.286V10.41c0-.71-.575-1.285-1.285-1.285Z"/>
</svg>
