<svg xmlns="http://www.w3.org/2000/svg" width="24" height="24" fill="none" viewBox="0 0 24 24">
  <path stroke="currentColor" stroke-linecap="round" stroke-linejoin="round" stroke-width="2" d="m3 3 3.59 3.59M21 21l-3.589-3.589m-3.536 1.414c-.607.115-1.234.175-1.874.175-4.478 0-8.268-2.943-9.543-7a9.97 9.97 0 0 1 1.564-3.029m5.857.908a3 3 0 1 1 4.243 4.243M9.879 9.878l4.243 4.242M9.879 9.88l-3.29-3.29m7.533 7.532L6.589 6.59m7.533 7.532 3.29 3.29M6.588 6.59A9.953 9.953 0 0 1 12.001 5c4.477 0 8.268 2.943 9.542 7a10.024 10.024 0 0 1-4.132 5.411"/>
</svg>
