<svg xmlns="http://www.w3.org/2000/svg" width="24" height="24" fill="none" viewBox="0 0 24 24">
  <path fill="#18181B" d="m9 5 .707-.707L9.414 4H9v1Zm2 2-.707.707.293.293H11V7Zm5 3a1 1 0 1 0 2 0h-2ZM4 17V7H2v10h2ZM5 6h4V4H5v2Zm3.293-.293 2 2 1.414-1.414-2-2-1.414 1.414ZM11 8h4V6h-4v2Zm4 0a1 1 0 0 1 1 1h2a3 3 0 0 0-3-3v2ZM4 7a1 1 0 0 1 1-1V4a3 3 0 0 0-3 3h2ZM2 17a3 3 0 0 0 3 3v-2a1 1 0 0 1-1-1H2Zm14-8v1h2V9h-2Zm-8 3a1 1 0 0 1 1-1V9a3 3 0 0 0-3 3h2Zm1-1h10V9H9v2Zm10 0a1 1 0 0 1 1 1h2a3 3 0 0 0-3-3v2Zm1 1v5h2v-5h-2Zm0 5a1 1 0 0 1-1 1v2a3 3 0 0 0 3-3h-2Zm-1 1H5v2h14v-2ZM5 20a3 3 0 0 0 3-3H6a1 1 0 0 1-1 1v2Zm3-3v-5H6v5h2Z"/>
</svg>
