<svg xmlns="http://www.w3.org/2000/svg" width="24" height="24" fill="none" viewBox="0 0 24 24">
  <path fill="#18181B" d="M7.5 12v1a1 1 0 0 0 .8-.4l-.8-.6Zm3-4 .98-.196A1 1 0 0 0 9.7 7.4l.8.6Zm1.5 7.5-.98.196a1 1 0 0 0 1.844.308L12 15.5Zm3.5-6 .858-.514a1 1 0 0 0-1.722.01l.864.504ZM17 12l-.858.514A1 1 0 0 0 17 13v-1Zm3 0a8 8 0 0 1-8 8v2c5.523 0 10-4.477 10-10h-2Zm-8 8a8 8 0 0 1-8-8H2c0 5.523 4.477 10 10 10v-2Zm-8-8a8 8 0 0 1 8-8V2C6.477 2 2 6.477 2 12h2Zm8-8a8 8 0 0 1 8 8h2c0-5.523-4.477-10-10-10v2Zm-3.7 8.6 3-4-1.6-1.2-3 4 1.6 1.2Zm1.22-4.404 1.5 7.5 1.96-.392-1.5-7.5-1.96.392Zm3.344 7.808 3.5-6-1.728-1.008-3.5 6 1.728 1.008ZM3 13h4.5v-2H3v2Zm11.643-2.986 1.5 2.5 1.715-1.028-1.5-2.5-1.716 1.028ZM17 13h4v-2h-4v2Z"/>
</svg>
