<svg xmlns="http://www.w3.org/2000/svg" width="25" height="25" fill="none" viewBox="0 0 25 25">
  <path stroke="currentColor" stroke-linecap="round" stroke-linejoin="round" stroke-width="2" d="M12.784 21.887c-.32.124-.676.124-.997 0v0A13.39 13.39 0 0 1 3.285 9.425V5.368A1.385 1.385 0 0 1 4.67 3.983H19.9a1.385 1.385 0 0 1 1.385 1.385v4.043a13.39 13.39 0 0 1-8.502 12.476v0Z"/>
  <path stroke="currentColor" stroke-linecap="round" stroke-linejoin="round" stroke-width="2" d="M12.285 14.368a3.462 3.462 0 1 0 0-6.923 3.462 3.462 0 0 0 0 6.923Zm-5.192 4.417a6.924 6.924 0 0 1 10.385 0"/>
</svg>
