<svg xmlns="http://www.w3.org/2000/svg" width="24" height="24" fill="none" viewBox="0 0 24 24">
  <path fill="#18181B" d="M7.293 15.293a1 1 0 1 0 1.414 1.414l-1.414-1.414ZM15 11a2 2 0 0 1-2 2v2a4 4 0 0 0 4-4h-2Zm-4 0a2 2 0 0 1 2-2V7a4 4 0 0 0-4 4h2Zm2-2a2 2 0 0 1 2 2h2a4 4 0 0 0-4-4v2Zm-2.828 3.414-2.88 2.879 1.415 1.414 2.879-2.879-1.414-1.414ZM13 13a1.99 1.99 0 0 1-1.414-.586l-1.414 1.414A3.99 3.99 0 0 0 13 15v-2Zm-1.414-.586A1.99 1.99 0 0 1 11 11H9a3.99 3.99 0 0 0 1.172 2.828l1.414-1.414ZM20 12a8 8 0 0 1-8 8v2c5.523 0 10-4.477 10-10h-2Zm-8 8a8 8 0 0 1-8-8H2c0 5.523 4.477 10 10 10v-2Zm-8-8a8 8 0 0 1 8-8V2C6.477 2 2 6.477 2 12h2Zm8-8a8 8 0 0 1 8 8h2c0-5.523-4.477-10-10-10v2Z"/>
</svg>
