<svg xmlns="http://www.w3.org/2000/svg" width="24" height="24" fill="none" viewBox="0 0 24 24">
  <path fill="#18181B" d="M19.071 4.929a1 1 0 1 0-1.414 1.414L19.07 4.93Zm-.707 13.435-.707.707.707-.707ZM16.243 7.757a1 1 0 1 0-1.415 1.415l1.415-1.415Zm-.707 7.779-.708.707.708-.707Zm-7.779.707a1 1 0 0 0 1.415-1.415l-1.415 1.415Zm.283-3.677a1 1 0 0 0-1.98.281l1.98-.28Zm-3.111 6.505a1 1 0 0 0 1.414-1.414L4.93 19.07Zm-.512-9.626a1 1 0 0 0-1.896-.638l1.896.638Zm-.71-7.152a1 1 0 0 0-1.414 1.414l1.414-1.414Zm16.586 19.414a1 1 0 0 0 1.414-1.414l-1.414 1.414ZM17.657 6.343a8 8 0 0 1 0 11.314l1.414 1.414c3.905-3.905 3.905-10.237 0-14.142l-1.414 1.414Zm-2.829 2.829a4 4 0 0 1 0 5.656l1.415 1.415a6 6 0 0 0 0-8.486l-1.415 1.415ZM12 12h2a2 2 0 0 0-2-2v2Zm-2.828 2.828a3.978 3.978 0 0 1-1.132-2.262l-1.98.281a5.978 5.978 0 0 0 1.697 3.396l1.415-1.415Zm-2.829 2.829a8 8 0 0 1-1.926-8.212l-1.896-.638A10 10 0 0 0 4.93 19.071l1.414-1.414ZM12 12v-2c-.552 0-1.053.225-1.414.586L12 12ZM2.293 3.707 10.586 12 12 10.586 3.707 2.293 2.293 3.707ZM10.586 12 12 13.414 13.414 12 12 10.586 10.586 12ZM12 13.414l2.828 2.829 1.415-1.415L13.414 12 12 13.414Zm2.828 2.829 2.829 2.828 1.414-1.414-2.828-2.829-1.415 1.415Zm2.829 2.828 2.636 2.636 1.414-1.414-2.636-2.636-1.414 1.414ZM12 12l1.414 1.414c.361-.36.586-.862.586-1.414h-2Z"/>
</svg>
