<svg xmlns="http://www.w3.org/2000/svg" width="24" height="25" fill="none" viewBox="0 0 24 25">
  <path stroke="currentColor" stroke-linecap="round" stroke-linejoin="round" stroke-width="2" d="M17.715 7.267h-6.428c-.79 0-1.43.64-1.43 1.429v6.428c0 .79.64 1.429 1.43 1.429h6.428a1.43 1.43 0 0 0 1.429-1.429V8.697c0-.79-.64-1.429-1.429-1.429Zm-10 12.857h10.871c.375.002.734.15 1 .415l1.7 1.728M2.715 3.696h1.428a1.429 1.429 0 0 1 1.429 1.428v12.143"/>
  <path stroke="currentColor" stroke-linecap="round" stroke-linejoin="round" stroke-width="2" d="M7.715 19.767a2.486 2.486 0 1 1-4.96.357 2.486 2.486 0 0 1 4.96-.357v0Zm6.429-6.786h1.428"/>
</svg>
