<svg xmlns="http://www.w3.org/2000/svg" width="24" height="24" fill="none" viewBox="0 0 24 24">
  <path fill="#18181B" d="M13 16h1-1Zm0-8h-1 1Zm4.293-.707L18 6.586l-.707.707Zm3.414 3.414.707-.707-.707.707ZM4 6h8V4H4v2Zm8 0v10h2V6h-2ZM4 16V6H2v10h2Zm1 0H4v2h1v-2Zm7 0H9v2h3v-2ZM2 16a2 2 0 0 0 2 2v-2H2Zm10 0v2a2 2 0 0 0 2-2h-2Zm0-10h2a2 2 0 0 0-2-2v2ZM4 4a2 2 0 0 0-2 2h2V4Zm10 12V8h-2v8h2Zm0-8h2.586V6H14v2Zm6 3.414V16h2v-4.586h-2ZM16.586 8 20 11.414 21.414 10 18 6.586 16.586 8ZM15 16h-1v2h1v-2Zm5 0h-1v2h1v-2Zm2-4.586A2 2 0 0 0 21.414 10L20 11.414h2ZM16.586 8 18 6.586A2 2 0 0 0 16.586 6v2ZM12 16a2 2 0 0 0 2 2v-2h-2Zm8 0v2a2 2 0 0 0 2-2h-2Zm-6-8V6a2 2 0 0 0-2 2h2Zm-6 9a1 1 0 0 1-1 1v2a3 3 0 0 0 3-3H8Zm-1 1a1 1 0 0 1-1-1H4a3 3 0 0 0 3 3v-2Zm-1-1a1 1 0 0 1 1-1v-2a3 3 0 0 0-3 3h2Zm1-1a1 1 0 0 1 1 1h2a3 3 0 0 0-3-3v2Zm11 1a1 1 0 0 1-1 1v2a3 3 0 0 0 3-3h-2Zm-1 1a1 1 0 0 1-1-1h-2a3 3 0 0 0 3 3v-2Zm-1-1a1 1 0 0 1 1-1v-2a3 3 0 0 0-3 3h2Zm1-1a1 1 0 0 1 1 1h2a3 3 0 0 0-3-3v2Z"/>
</svg>
