<svg xmlns="http://www.w3.org/2000/svg" width="24" height="24" fill="none" viewBox="0 0 24 24">
  <path fill="#18181B" d="M5.767 4.445a1 1 0 1 0-1.791-.89l1.79.89Zm-1.791 16a1 1 0 1 0 1.79-.89l-1.79.89Zm14.129-.89a1 1 0 0 0 1.79.89l-1.79-.89Zm1.79-16a1 1 0 0 0-1.79.89l1.79-.89ZM9 8a1 1 0 0 0 0 2V8Zm2.207 1.725-.961.275.961-.275Zm1.586 5.55-.962.274.962-.274ZM15 17a1 1 0 1 0 0-2v2Zm1-7a1 1 0 1 0 0-2v2Zm-1.599-.302.76.651-.76-.65ZM9.6 15.302l.759.65-.76-.65ZM8 15a1 1 0 1 0 0 2v-2Zm-4-3c0-2.716.636-5.28 1.767-7.555l-1.791-.89A18.926 18.926 0 0 0 2 12h2Zm1.767 7.555A16.926 16.926 0 0 1 4 12H2c0 3.031.71 5.9 1.976 8.445l1.79-.89ZM19.87 12c0 2.716-.636 5.28-1.766 7.555l1.79.89A18.926 18.926 0 0 0 21.872 12h-2Zm-1.766-7.555A16.925 16.925 0 0 1 19.87 12h2c0-3.032-.71-5.9-1.975-8.445l-1.791.89ZM9 10h1.246V8H9v2Zm1.246 0 1.585 5.55 1.923-.55-1.585-5.55-1.923.55Zm3.508 7H15v-2h-1.246v2Zm-1.923-1.45A2 2 0 0 0 13.754 17v-2l-1.923.55ZM10.246 10l1.923-.55A2 2 0 0 0 10.246 8v2ZM16 8h-.08v2H16V8Zm-2.358 1.048L8.84 14.65l1.519 1.301 4.803-5.603-1.519-1.301ZM8.08 15H8v2h.08v-2Zm.76-.35a1 1 0 0 1-.76.35v2a3 3 0 0 0 2.278-1.048l-1.519-1.301ZM15.92 8a3 3 0 0 0-2.278 1.048l1.519 1.301A1 1 0 0 1 15.92 10V8Z"/>
</svg>
