<svg xmlns="http://www.w3.org/2000/svg" width="24" height="24" fill="none" viewBox="0 0 24 24">
  <path fill="#18181B" d="M7.404 15.697a1 1 0 1 0 1.414 1.414l-1.414-1.414Zm7.778 1.414a1 1 0 0 0 1.414-1.414l-1.414 1.414ZM12 19a1 1 0 1 0 0 2v-2Zm.01 2a1 1 0 0 0 0-2v2Zm-7.788-8.778a1 1 0 0 0 1.414 1.414l-1.414-1.414Zm14.142 1.414a1 1 0 0 0 1.414-1.414l-1.414 1.414ZM.686 8.686a1 1 0 1 0 1.415 1.415L.686 8.686ZM21.9 10.101a1 1 0 0 0 1.414-1.415L21.9 10.101ZM8.818 17.11a4.5 4.5 0 0 1 6.364 0l1.414-1.414a6.5 6.5 0 0 0-9.192 0l1.414 1.414ZM12 21h.01v-2H12v2Zm-6.364-7.364a9 9 0 0 1 12.728 0l1.414-1.414c-4.295-4.296-11.26-4.296-15.556 0l1.414 1.414Zm-3.535-3.535c5.467-5.468 14.331-5.468 19.799 0l1.414-1.415c-6.248-6.248-16.38-6.248-22.628 0l1.415 1.415Z"/>
</svg>
