<svg xmlns="http://www.w3.org/2000/svg" width="28" height="28" fill="none" viewBox="0 0 28 28"><path fill="url(#paint0_linear_528_8131)" d="M24.0559.621555c-.5594.14399-1.593.721955-2.8852 1.614365l.4061 1.90398c.8326-.67373 1.7024-1.35131 2.6417-1.872 0 0-.8734.48998-2.5365 1.93453.6814.37045 2.8036.90411 3.527.55152.8739-1.78304.4568-2.83529.4568-2.83529s-.45-1.592741-1.6099-1.297105Z"/><path fill="url(#paint1_linear_528_8131)" d="M17.7645 7.67771C18.98 6.43926 20.2271 5.2332 21.5768 4.1399l-.4044-1.90975c-1.7962 1.2008-3.4105 2.68048-5.0545 4.07517l.4961 2.58392c.3826-.40841.7653-.81681 1.1505-1.21153Z"/><path fill="url(#paint2_linear_528_8131)" d="M21.6802 4.20862c-1.32 1.14405-2.5661 2.37171-3.7645 3.64198-.3715.39216-.7559.80655-1.1565 1.25513l2.9939.52986c1.5187-.23373 2.6356-1.32706 3.6397-2.41003.6959-.74317 1.3794-1.53756 1.8204-2.4637-1.1817-.12512-2.6174-.33601-3.533-.55324Z"/><path fill="url(#paint3_linear_528_8131)" d="M16.5763 8.93029c.0112-.01624.0266-.02482.0377-.04105l-.4961-2.58392c-1.649 1.53963-3.2646 3.13852-4.6867 4.89308-1.1502 1.426-2.19572 2.9324-3.03759 4.5628l-.00264.077.47053 2.4924.03076.0282c2.39494-3.274 4.96384-6.4194 7.68404-9.42851Z"/><path fill="url(#paint4_linear_528_8131)" d="M10.1864 17.1885c-.1458.1587-1.09277 1.5158-1.07303 1.5265l.85806.1492.05257-.006c-.0162-.0111-.0205-.0382-.03671-.0494 1.14061.1781 2.84361-.2273 4.08691-.9718 1.369-.8193 2.6471-2.199 4.0139-4.2181-.4426.0912-.8701.0453-1.3136.0184 1.1426-.0998 2.0086-.6805 2.7491-1.4785-.495.1662-1.1643.3073-1.684.1583 1.2719-.1476 2.2085-.8534 2.9812-1.8589.2323-.2886.4508-.5968.6106-.93236-.5181.22856-1.1545.12056-1.7002.10185.0052-.00285-2.9666-.5212-2.9666-.5212-2.371 2.53631-4.5182 5.28891-6.5782 8.08201Z"/><path fill="#742A83" d="M8.39627 15.7539c-.35153.6835-.77298 1.4966-.98565 2.2383-.19433-.6775-.99226-1.5086-.99226-1.5086.40335 1.1907.64086 2.3275.44066 3.3193-.38736-.0269-.85745-.2847-1.38388-.6624.44485.7299.85506 1.0159 1.02258 1.1093-.56686-.1237-1.25718.0929-1.96893.3616.95531-.1018 1.683-.0421 2.14882.2081-1.42061 1.9955-2.90816 4.2243-4.44287 6.5951.25997-.0032.44994-.1236.59721-.321 1.82771-2.8987 3.80384-5.7172 5.85311-8.464.06508-.0914.13614-.1811.20122-.2726l.00172-.006c-.4236-2.2191-.48072-2.6161-.49173-2.5971ZM7.2476 21.2485c.29052.2517.44484.7299.57004 1.2645.11163-.4797.04285-.9852-.23636-1.4344 1.78314.596 3.47082.5239 4.54762-.749-.457.3288-.9274.3882-1.6933.1232 1.3453-.1895 2.3956-.7476 3.3119-1.7251-1.3082.7453-2.5602.7037-3.7235.1305l-.9499-.1624c-.67337.79-1.23509 1.7011-1.8265 2.5527Z"/><defs><linearGradient id="paint0_linear_528_8131" x1="387.262" x2="3828.28" y1="1693.11" y2="763.106" gradientUnits="userSpaceOnUse"><stop stop-color="#F69923"/><stop offset=".3123" stop-color="#F79A23"/><stop offset=".8383" stop-color="#E97826"/></linearGradient><linearGradient id="paint1_linear_528_8131" x1="-5119.21" x2="2929.75" y1="10589.5" y2="1395.25" gradientUnits="userSpaceOnUse"><stop offset=".3233" stop-color="#9E2064"/><stop offset=".6302" stop-color="#C92037"/><stop offset=".7514" stop-color="#CD2335"/><stop offset="1" stop-color="#E97826"/></linearGradient><linearGradient id="paint2_linear_528_8131" x1="-2537.96" x2="2244.72" y1="10387.7" y2="859.742" gradientUnits="userSpaceOnUse"><stop offset=".3233" stop-color="#9E2064"/><stop offset=".6302" stop-color="#C92037"/><stop offset=".7514" stop-color="#CD2335"/><stop offset="1" stop-color="#E97826"/></linearGradient><linearGradient id="paint3_linear_528_8131" x1="-1881.24" x2="4097.1" y1="4572.84" y2="-402.38" gradientUnits="userSpaceOnUse"><stop offset=".3233" stop-color="#9E2064"/><stop offset=".6302" stop-color="#C92037"/><stop offset=".7514" stop-color="#CD2335"/><stop offset="1" stop-color="#E97826"/></linearGradient><linearGradient id="paint4_linear_528_8131" x1="-704.295" x2="2952.36" y1="4447.13" y2="-712.211" gradientUnits="userSpaceOnUse"><stop offset=".3233" stop-color="#9E2064"/><stop offset=".6302" stop-color="#C92037"/><stop offset=".7514" stop-color="#CD2335"/><stop offset="1" stop-color="#E97826"/></linearGradient></defs></svg>