<svg xmlns="http://www.w3.org/2000/svg" width="28" height="20" viewBox="0 0 28 20"><g id="Page-1" fill="none" fill-rule="evenodd" stroke="none" stroke-width="1"><g id="mariadb-dark"><path id="Path" fill="#304786" d="M27.3871.7034c-.4298.01417-.3054.20783-1.2359.43769-.9399.23144-2.0767.08975-3.0874.51484-2.6451 1.1084-3.0733 5.39397-6.2238 7.05187-2.0656 1.1666-4.1722 1.4343-6.0552 2.0247-1.5114.6061-2.4514 1.0076-3.55976 1.9633-.85964.7416-1.06903 1.4611-1.96803 2.3916C4.34542 16.3264.88955 15.2259 0 16.7799c.46918.3038.73997.3873 1.56339.2786-.17003.3228-1.25323.7479-1.05643 1.2234 0 0 2.61827.477 4.82562-.8549 1.02967-.4188 1.99479-1.3052 3.59442-1.5178 2.0719-.2755 4.4068.4345 6.9117.6345-.518 1.0234-1.0517 1.628-1.6232 2.4718-.1763.1906.1511.359.7589.2441 1.0926-.2708 1.8845-.5637 2.6702-1.1068 1.0249-.707 1.4658-1.354 2.3301-2.379.751 1.2044 3.3992 1.4689 3.9424.4282-1.0108-.4282-1.2265-2.656-.8801-3.618.4093-.9163.7038-2.212 1.0344-3.4165.2976-1.0848.4818-2.7395.8376-3.5865.4251-1.0533 1.2516-1.3824 1.872-1.94129.6203-.55892 1.2375-1.02495 1.2186-2.30339-.0063-.41565-.2204-.64551-.6125-.63292Z"/><path id="Path" fill="#DC8A6B" fill-rule="nonzero" d="M.79036 18.0614c1.62324.0488 2.06408.0063 3.34723-.551 1.09108-.4739 2.55056-1.7508 3.84001-2.1633 1.8925-.6077 3.9219-.5164 5.9356-.2787.6739.0803 1.3509.1921 1.8342.1402.7542-.4629.7904-1.7193 1.258-1.8201-.1276 2.4309-1.1698 3.9865-2.2121 5.3972 2.1963-.3873 3.6637-1.7587 4.5517-3.4559.2692-.5148.7163-1.3572.921-1.9365.1622.3841-.211.6282-.0362 1.047 1.4138-1.1667 2.0814-2.4955 2.6545-4.4415.6644-2.2514 1.3461-4.1864 1.7743-4.8524.4173-.6502 1.0675-1.0517 1.6611-1.46735.6738-.4739 1.2768-.96669 1.3807-1.86884-.7116-.06613-.8753-.22987-.9808-.58884-.3559.19996-.6833.24404-1.0533.25506-.3212.00945-.6739-.00472-1.1053.03936-3.5629.36527-3.7282 3.84791-6.3181 6.40481-.1669.1621-.4519.4014-.6408.5431-.7998.5967-1.6563.9242-2.5585 1.269-1.461.5574-2.8465.7195-4.2163 1.2013-1.006.3527-1.9413.7573-2.7678 1.3225-.20628.1417-.48652.3936-.666.5401-.48493.3967-.80295.836-1.11154 1.2894-.31803.466-.62348.9462-1.09108 1.4044-.7573.7431-3.58497.2173-4.58158.9069-.11021.0771-.19995.1684-.25978.2786.54317.2472.90686.0961 1.53191.1638.07715.5967-1.29417.9494-1.09107 1.2217Z"/><path id="Path" fill="#304786" d="M23.3739 2.98948c.5038.43769 1.5618.08659 1.3729-.78407-.7841-.06612-1.2375.19995-1.3729.78407Z"/><path id="Path" fill="#304786" fill-rule="nonzero" d="M26.8896 1.97081c-.1338.28182-.3905.64394-.3905 1.3603-.0015.12281-.0928.20783-.0944.01732.0063-.70062.1921-1.00291.3889-1.39966.0897-.16217.1448-.09604.096.02204Z"/><path id="Path" fill="#304786" fill-rule="nonzero" d="M26.7542 1.86533c-.159.26765-.54.75729-.6014 1.47208-.011.12281-.1118.19838-.0961.00945.0693-.6959.3732-1.13201.6046-1.51145.1039-.15429.1527-.08344.0929.02992Zm-.1228-.14013c-.181.25348-.7667.84232-.8895 1.54766-.0221.12123-.1276.18736-.0961.00158.1275-.68803.6329-1.22963.8943-1.58702.1165-.14643.1606-.07085.0913.03778Zm-.1102-.15744c-.2141.22672-.9132.97615-1.1336 1.65787-.0394.11651-.1527.16847-.096-.01259.222-.66441.8344-1.3792 1.1446-1.69566.137-.12753.1684-.04566.085.05038Z"/></g></g></svg>