<svg xmlns="http://www.w3.org/2000/svg" width="30" height="32" viewBox="0 0 30 32"><g id="Page-1" fill="none" fill-rule="evenodd" stroke="none" stroke-width="1"><g id="nodejs-icon-logo-svgrepo-com" fill="#8CC84B" fill-rule="nonzero"><path id="Path" d="M13.2133454.36715903c.7919942-.4533319 1.823566-.45537958 2.6148776 0 3.9810164 2.24948186 7.9632841 4.49543718 11.9436179 6.74628415.7486518.42170675 1.2494215 1.25488189 1.2418854 2.11752075V22.7647132c.0054884.8983594-.5447667 1.7514424-1.3345994 2.1635934-3.967934 2.237082-7.9338204 4.4768943-11.9010718 6.7139764-.8083756.4622052-1.8606517.4265984-2.6437726-.0734887-1.1895839-.6896105-2.3812154-1.3758083-3.57091308-2.0647363-.24310422-.1449297-.51715104-.2602819-.68881424-.4959917.15175528-.2045398.42307187-.2300219.64353793-.3193232.49656059-.1578983.95262269-.4113546 1.40879859-.6573028.1153522-.0789491.2561866-.0486891.3667609.0219556 1.0172381.5832453 2.0254892 1.1834409 3.0461401 1.761112.2177359.1257043.4382019-.041181.6243126-.1449297 3.8937628-2.200679 7.7923035-4.3930536 11.6853837-6.5944151.1442471-.0693934.2239926-.2225137.2122753-.3805258.0027303-4.4644946.0006826-8.9297855.0013652-13.39428002.0164951-.1792851-.0872536-.34412272-.249361-.41749765-3.9541691-2.2268437-7.9062906-4.4571002-11.8597771-6.6845127-.140205-.09638928-.3252449-.09666047-.4657317-.00068256C10.3347731 4.42575943 6.38333422 6.6580636 2.42984767 8.88479354c-.1615386.07348869-.26995148.23559609-.25072611.41556374.00068256 4.46449452 0 8.92978542 0 13.39496262-.01404058.157905.07175625.3078452.2150056.3757478 1.05500631.5982617 2.11137774 1.1923142 3.1670666 1.7885281.59473507.3201194 1.32495779.5103255 1.98021295.2650598.57823992-.2073837.98356529-.7974546.97253062-1.4114151.00546046-4.4384436-.00273023-8.8775698.00409534-13.3153308-.01444747-.1970316.17245952-.3598216.36403064-.3412788.50691268-.0034127 1.01450791-.0068255 1.52142059.0013652.2115928-.0047779.3572051.2073837.3310404.4058941-.0020477 4.4665423.0054604 8.9331983-.0034128 13.3997405.0013651 1.1903802-.4876873 2.4856467-1.58876628 3.0680958-1.35646918.7026929-3.03305782.5536678-4.37314563-.1201301-1.16012015-.5790363-2.26722835-1.2623901-3.40675803-1.882721-.7918804-.4098758-1.33940525-1.2663716-1.33392894-2.1640484V9.23096393c-.00820654-.88049912.51247104-1.72880428 1.28444353-2.14436801C5.28020761 4.8476937 9.24677652 2.60708509 13.2133454.36715903Z"/><path id="Path" d="M16.6743668 9.74208571c1.7302831-.11137062 3.5826303-.06598055 5.1396576.78641999 1.2055103.6532074 1.8738478 2.0241241 1.8951208 3.3634156-.0336728.1806502-.2225137.2803036-.3949732.2679038-.5020211-.0006826-1.0041558.0068256-1.5061768-.0034128-.212958.0081907-.3367284-.1881583-.3634619-.3764304-.1442471-.6408077-.4937165-1.2754724-1.0968698-1.5845572-.9258892-.4635702-1.9994383-.4402495-3.0090546-.43058-.7370483.0391333-1.5296112.1029525-2.1540375.5363764-.4793829.3283102-.6249952.9910735-.4539008 1.5248334.1613111.383256.6037221.5069127.9657051.6208998 2.085213.5453634 4.294879.4911001 6.3402762 1.2088092.8468263.2925897 1.6752235.8613875 1.9650829 1.7480297.3791607 1.1883325.212958 2.6087346-.6325032 3.5627224-.685629.7850548-1.6842105 1.2123358-2.6801756 1.4444053-1.3249578.2954336-2.6999698.3029418-4.0455181.171777-1.265234-.1442472-2.5818873-.4766526-3.558627-1.3387227-.8352229-.7252173-1.2431647-1.8551912-1.2026663-2.9458042.0096696-.1841768.19305-.3126114.3694911-.2974813.5055476-.0040954 1.0110951-.0054605 1.5166427.0006825.2019232-.0144474.3516308.1600597.361983.3503795.0932828.6105477.3227359 1.2513554.8551307 1.6133383 1.0274765.6628771 2.3167138.617487 3.4932153.6360298.9746921-.0432286 2.0688317-.056311 2.8642386-.7005314.4196591-.3674435.5439983-.9822002.43058-1.5110685-.1228603-.4465063-.5899571-.6545726-.9910734-.7906291-2.0584795-.6511598-4.2928314-.4148811-6.331403-1.1512469-.8276009-.2924758-1.6278995-.8454611-1.9458575-1.6957002-.4436624-1.2033488-.240374-2.6917791.6937059-3.613573.9107591-.9169021 2.2254785-1.27001186 3.4754688-1.39639875v.00011376Z"/></g></g></svg>