<svg xmlns="http://www.w3.org/2000/svg" viewBox="0 0 28 14"><path fill="#2B2A2C" d="M15.406 11.0313c-.0639 0-.1245-.0285-.1651-.0779-.0408-.0493-.0572-.1142-.045-.177l.8941-4.6015c.0851-.4376.0641-.7517-.059-.8844-.0754-.0812-.3017-.2172-.9709-.2172h-1.6199l-1.1242 5.7848c-.0195.1006-.1077.1732-.2101.1732H9.8582c-.0639 0-.1245-.0285-.1652-.0779-.0406-.0493-.0571-.1142-.0449-.177L11.6694.37653c.0196-.10054.1077-.17318.2101-.17318h2.2477c.0639 0 .1245.02855.1652.07785.0407.04938.0571.11424.0449.17703l-.4877 2.51007h1.7426c1.3275 0 2.2277.2341 2.752.7156.5345.4912.7012 1.2766.4957 2.3346l-.9404 4.8396c-.0196.1006-.1076.1732-.2102.1732H15.406ZM4.7138 8.9622c.86088 0 1.50357-.1587 1.91022-.4717.40229-.3097.68014-.8464.82578-1.595.13578-.6997.08405-1.1882-.1537-1.4519-.2431-.2693-.7687-.4058-1.56215-.4058H4.35817l-.7627 3.9244H4.7138ZM.214 13.7965c-.06386 0-.12451-.0286-.16511-.078-.04068-.0493-.05716-.1142-.04496-.1769L2.02525 3.1417c.01955-.1006.10767-.1732.21014-.1732h4.35645c1.36914 0 2.38826.3717 3.02876 1.1051.644.7371.8428 1.7675.591 3.0625-.1024.5276-.2787 1.0176-.5238 1.4563-.2454.4392-.5697.8455-.964 1.208-.4721.4418-1.00643.7622-1.58668.9507-.57104.1861-1.30442.2804-2.17972.2804H3.19339l-.50376 2.5917c-.01955.1006-.1076.1733-.21007.1733H.214Zm24.0927-5.3062c-.4066.313-1.0493.4718-1.9102.4718h-1.1183l.7627-3.9245h1.3757c.7935 0 1.3191.1366 1.5622.4058.2378.2637.2895.7523.1538 1.452-.1457.7486-.4236 1.2853-.8259 1.5949Zm-6.575 5.2281c.0406.0493.1012.0779.1651.0779h2.2655c.1025 0 .1905-.0727.2102-.1733l.5035-2.5917h1.7641c.8753 0 1.6087-.0943 2.1797-.2803.5803-.1885 1.1146-.5089 1.5866-.9507.3944-.3625.7187-.7689.9641-1.2081.2451-.4387.4213-.9286.5239-1.4562.2517-1.2951.0529-2.3255-.591-3.0626-.6407-.7333-1.6597-1.1051-3.0289-1.1051h-4.3563c-.1026 0-.1906.0727-.2103.1732l-2.0213 10.3999c-.0122.0627.0044.1277.0451.177Z"/></svg>