<svg xmlns="http://www.w3.org/2000/svg" width="32" height="32" fill="none" viewBox="0 0 32 32"><path fill="#000" d="M22.9479 22.2479c.1831-1.5256.1282-1.7493 1.2645-1.5022l.2885.0254c.8738.0397 2.0167-.1405 2.6882-.4525 1.4455-.6707 2.3026-1.7905.8773-1.4963-3.2512.6707-3.4747-.4302-3.4747-.4302 3.4331-5.0938 4.8682-11.55988 3.6294-13.14265-3.3787-4.317224-9.2272-2.27571-9.325-2.2227l-.0312.00575c-.6424-.13329-1.3613-.21292-2.1689-.22598-1.4713-.02417-2.5877.38571-3.4345 1.02803 0 0-10.4334-4.298415-9.94802 5.4057C3.41671 11.3046 6.2725 24.8608 9.67856 20.7662c1.24494-1.4973 2.44794-2.7633 2.44794-2.7633.5974.3969 1.3127.5994 2.0628.5267l.058-.0495c-.0182.1859-.0101.3678.0232.583-.8773.9804-.6195 1.1525-2.3738 1.5136-1.7748.3658-.7321 1.0171-.0515 1.1873.8253.2063 2.7346.4987 4.025-1.3073l-.0514.2061c.3442.2753.321 1.9792.3698 3.1965.0488 1.2174.1303 2.3535.3785 3.0233.2482.6697.541 2.3949 2.8465 1.9008 1.9268-.4129 3.4-1.0072 3.5343-6.5356"/><path stroke="#000" stroke-width="2.41723" d="M22.9479 22.2479c.1831-1.5256.1282-1.7493 1.2645-1.5022l.2885.0254c.8738.0397 2.0167-.1405 2.6882-.4525 1.4455-.6707 2.3026-1.7905.8773-1.4963-3.2512.6707-3.4747-.4302-3.4747-.4302 3.4331-5.0938 4.8682-11.55988 3.6294-13.14265-3.3787-4.317224-9.2272-2.27571-9.325-2.2227l-.0312.00575c-.6424-.13329-1.3613-.21292-2.1689-.22598-1.4713-.02417-2.5877.38571-3.4345 1.02803 0 0-10.4334-4.298415-9.94802 5.4057C3.41671 11.3046 6.2725 24.8608 9.67856 20.7662c1.24494-1.4973 2.44794-2.7632 2.44794-2.7632.5974.3968 1.3127.5993 2.0628.5266l.058-.0495c-.0182.1859-.0101.3678.0232.583-.8773.9804-.6195 1.1525-2.3738 1.5136-1.7748.3658-.7321 1.0171-.0515 1.1873.8253.2063 2.7346.4987 4.025-1.3073l-.0514.2061c.3442.2753.321 1.9792.3698 3.1965.0488 1.2174.1303 2.3535.3785 3.0233.2482.6697.541 2.3949 2.8465 1.9008 1.9268-.4129 3.4-1.0072 3.5343-6.5356"/><path fill="#336791" d="M28.0667 18.8222c-3.2515.6707-3.475-.4302-3.475-.4302 3.4331-5.0941 4.8682-11.56036 3.6297-13.14293-3.3787-4.316972-9.2275-2.27532-9.3251-2.22232l-.0314.00562c-.6424-.13335-1.3613-.21279-2.1693-.22598-1.4713-.02411-2.5873.38571-3.4341 1.02791 0 0-10.4336-4.298228-9.94835 5.40582C3.41638 11.3046 6.27211 24.8608 9.6783 20.7662c1.245-1.4973 2.4478-2.7632 2.4478-2.7632.5975.3968 1.3128.5993 2.0626.5266l.0582-.0495c-.0181.1859-.0098.3678.0233.583-.8774.9804-.6196 1.1525-2.3737 1.5136-1.775.3658-.7323 1.0171-.0515 1.1873.8253.2063 2.7347.4987 4.0249-1.3073l-.0515.2061c.3439.2753.5853 1.7912.5448 3.1653-.0404 1.3742-.0675 2.3176.2034 3.0545.2709.7369.5409 2.3949 2.8469 1.9008 1.9269-.4129 2.9253-1.483 3.0643-3.2679.0985-1.2689.3216-1.0813.3357-2.2158l.1789-.5371c.2064-1.7202.0328-2.2751 1.2199-2.017l.2885.0254c.8737.0397 2.0173-.1406 2.6884-.4525 1.4452-.6707 2.3024-1.7905.8774-1.4963h.0001Z"/><path stroke="#fff" stroke-linecap="round" stroke-linejoin="round" stroke-width=".805742" d="M16.0095 19.8082c-.0895 3.2007.0225 6.4237.3357 7.207.3134.7833.984 2.3069 3.2902 1.8128 1.9266-.413 2.6276-1.2123 2.9318-2.9767.2241-1.2981.656-4.9032.7114-5.6418M13.2454 3.7628S2.8047-.504461 3.29008 9.19959C3.39331 11.2641 6.24923 24.8207 9.65536 20.7259c1.24474-1.4974 2.37044-2.6719 2.37044-2.6719m6.8591-15.07005c-.3614.11332 5.8077-2.255214 9.3137 2.22471 1.2385 1.58264-.1967 8.04884-3.6297 13.14314"/><path stroke="#fff" stroke-linecap="round" stroke-linejoin="bevel" stroke-width=".805742" d="M24.5689 18.3518s.2237 1.1012 3.4753.4301c1.4246-.2943.5672.8257-.8777 1.4967-1.1858.5503-3.8443.6914-3.8878-.0691-.1117-1.9622 1.3993-1.366 1.2902-1.8577-.0986-.4428-.7743-.8773-1.2213-1.961-.3902-.9459-5.3519-8.19953 1.376-7.12224.2465-.051-1.7547-6.39947-8.0511-6.5027-6.2949-.10323-6.0884 7.74134-6.0884 7.74134"/><path stroke="#fff" stroke-linecap="round" stroke-linejoin="round" stroke-width=".805742" d="M14.2473 19.0228c-.8776.9804-.6195 1.1525-2.3738 1.5137-1.7749.3659-.7321 1.017-.0515 1.1871.8253.2065 2.7347.4989 4.0249-1.3076.3929-.55-.0023-1.4276-.542-1.6513-.2608-.1081-.6094-.2434-1.0576.2581v0Z"/><path stroke="#fff" stroke-linecap="round" stroke-linejoin="round" stroke-width=".805742" d="M14.1898 19.0057c-.0884-.5764.1894-1.2623.4872-2.0647.4474-1.204 1.4798-2.4082.6539-6.2274-.6155-2.84598-4.7443-.5922-4.7469-.2063-.0025.3857.1868 1.956-.0689 3.7845-.3337 2.386 1.5182 4.404 3.6508 4.1976"/><path fill="#fff" stroke="#fff" stroke-width=".268578" d="M13.2074 10.4494c-.0186.1318.2413.4835.5802.5305.3384.0472.628-.2277.6463-.3593.0184-.1318-.2412-.277-.5803-.3242-.3385-.0473-.6282.0215-.6461.153h-.0001Z"/><path fill="#fff" stroke="#fff" stroke-width=".134289" d="M23.5126 10.1807c.0183.1318-.2413.4835-.5802.5305-.3386.0472-.6282-.2277-.6468-.3593-.0179-.1318.2418-.277.5804-.3242.3387-.04719.6282.0215.6466.1531v-.0001Z"/><path stroke="#fff" stroke-linecap="round" stroke-linejoin="round" stroke-width=".805742" d="M24.7236 9.26857c.0558 1.03383-.2227 1.73803-.2578 2.83863-.0519 1.5997.7627 3.4307-.4648 5.2639"/></svg>