<svg xmlns="http://www.w3.org/2000/svg" viewBox="0 0 28 28"><defs><linearGradient id="linearGradient-1a" x1=".95945394%" x2="74.6474638%" y1="-.00001278%" y2="63.4036284%"><stop offset="0%" stop-color="#5A9FD4"/><stop offset="100%" stop-color="#306998"/></linearGradient><linearGradient id="linearGradient-2a" x1="49.9999915%" x2="23.9118063%" y1="82.2755605%" y2="45.1543547%"><stop offset="0%" stop-color="#FFD43B"/><stop offset="100%" stop-color="#FFE873"/></linearGradient></defs><g fill="none"><path fill="url(#linearGradient-1a)" d="M13.5272551.27336294c-1.119853.0052-2.188753.100693-3.129718.267175-2.7715519.489645-3.2747659 1.514516-3.2747659 3.404541v2.496187h6.5495879v.832025H4.6647992c-1.9034729 0-3.5702371 1.1441106-4.0915613 3.32062356-.60135319 2.494746-.62804799 4.051519 0 6.656423.4655531 1.939029 1.5773753 3.320569 3.4808483 3.320569h2.25189v-2.992311c0-2.161782 1.870464-4.068688 4.0915609-4.068688h6.541891c1.821007 0 3.274821-1.499396 3.274821-3.328212V3.94507894c0-1.774955-1.497567-3.108306-3.274821-3.404541-1.124838-.18729-2.29232-.272375-3.412173-.267175Zm-3.54177 2.007622c.676231 0 1.228958.561521 1.228958 1.251876 0 .687972-.552727 1.244299-1.228958 1.244299-.679001 0-1.2289589-.556327-1.2289589-1.244299 0-.690355.5499579-1.251876 1.2289589-1.251876Z"/><path fill="url(#linearGradient-2a)" d="M21.0317091 7.27340194v2.90840456c0 2.254825-1.911836 4.152649-4.091728 4.152649h-6.54189c-1.7922069 0-3.2748769 1.533623-3.2748769 3.328212v6.236561c0 1.774983 1.543591 2.819016 3.2748769 3.328267 2.073002.609605 4.061267.719763 6.54189 0 1.648765-.477405 3.274822-1.438197 3.274822-3.328267v-2.496131h-6.54189v-.832081h9.816712c1.903529 0 2.612436-1.327706 3.274822-3.320568.683432-2.051624.654632-4.024603 0-6.656479-.470759-1.89488796-1.369078-3.32056756-3.274822-3.32056756h-2.457916Zm-3.679675 15.79380156c.679001 0 1.228958.556326 1.228958 1.244244 0 .69041-.549957 1.251887-1.228958 1.251887-.676232 0-1.228958-.561477-1.228958-1.251887 0-.687918.552726-1.244244 1.228958-1.244244Z"/></g></svg>