<svg xmlns="http://www.w3.org/2000/svg" width="32" height="32" fill="none" viewBox="0 0 32 32"><path fill="#A32422" d="M28.9023 22.504c-1.4917.7803-9.2333 3.9645-10.9009 4.8385-1.6677.874-2.5608.8491-3.8651.2257-1.3043-.6235-9.51435-3.9626-11.00223-4.674-.74967-.3519-1.13216-.6522-1.13216-.9333v-2.8323s10.72499-2.3274 12.45569-2.9547c1.7308-.6273 2.3294-.6426 3.8-.1033 1.4707.5393 10.287 2.1305 11.7424 2.6583v2.7922c0 .2906-.3347.5737-1.0977.981v.0019Z"/><path fill="#DC382C" d="M28.9023 19.6851c-1.4917.7765-9.2333 3.9607-10.9009 4.8193-1.6677.8587-2.5608.8511-3.8651.2295-1.3043-.6215-9.51435-3.9606-11.00223-4.6663-1.48787-.7057-1.51656-1.1991-.05737-1.769 1.45919-.5699 9.6502-3.7771 11.3809-4.4082 1.7308-.6311 2.3294-.6445 3.8-.1033 1.4707.5413 9.1797 3.6031 10.6274 4.1366 1.4478.5336 1.5147.9716.0173 1.7461v.0153Z"/><path fill="#A32422" d="M28.9023 17.8912c-1.4917.7784-9.2333 3.9607-10.9009 4.8194-1.6677.8587-2.5531.851-3.8574.2257-1.3043-.6254-9.52205-3.9454-11.00993-4.6549-.74967-.3557-1.13216-.6541-1.13216-.9371v-2.8228s10.72499-2.3351 12.45569-2.9623c1.7308-.6273 2.3294-.6445 3.8-.0976 1.4707.547 10.287 2.1228 11.7424 2.6545v2.7921c0 .2907-.3347.5814-1.0977.983Z"/><path fill="#DC382C" d="M28.9023 15.0589c-1.4917.7803-9.2333 3.9626-10.9009 4.8213-1.6677.8587-2.5608.8529-3.8651.2295-1.3043-.6235-9.51435-3.9492-11.00223-4.6606-1.48787-.7115-1.51465-1.1953-.05737-1.7652 1.45728-.5699 9.6502-3.78474 11.3809-4.39864 1.7308-.61389 2.3294-.65214 3.8-.11857 1.4707.53357 9.1797 3.62221 10.6275 4.14041 1.4477.5183 1.5146.9735.0172 1.7461v.0057Z"/><path fill="#A32422" d="M28.9023 13.1044c-1.4917.7803-9.2333 3.9645-10.9009 4.8213-1.6677.8567-2.5531.851-3.8574.2295-1.3043-.6216-9.52205-3.9511-11.00993-4.6607-.74967-.3518-1.13216-.6521-1.13216-.9351V9.72704S12.7269 7.3996 14.4576 6.77424c1.7308-.62537 2.3294-.6445 3.8-.10519 1.4707.53931 10.2832 2.13046 11.7386 2.66212v2.79213c.0038.2945-.3309.5814-1.0939.9811Z"/><path fill="#DC382C" d="M28.9023 10.2759c-1.4917.765-9.2333 3.9683-10.9009 4.8194-1.6677.851-2.5608.8491-3.8651.2295-1.3043-.6197-9.51435-3.9531-11.00223-4.6607-1.48787-.70756-1.51656-1.19906-.05737-1.76896 1.45919-.56991 9.6502-3.7828 11.3809-4.40626 1.7308-.62345 2.3294-.64258 3.8-.10327 1.4707.53931 9.1797 3.60494 10.6274 4.1366 1.4478.53166 1.5147.97343.0173 1.74799v.0057Z"/><path fill="#fff" d="m16.4408 6.25406 1.8474-.60624-.501 1.19718 1.8799.70378-2.4231.25244-.545 1.30811-.8759-1.45919-2.8017-.25244 2.0922-.7535-.6292-1.15894 1.9564.7688Zm.1167 7.63634-4.5287-1.8799 6.487-.9964-1.9583 2.8763Zm-6.2786-5.61489c1.9125 0 3.4673.60242 3.4673 1.33871 0 .73628-1.5586 1.33868-3.4673 1.33868-1.90857 0-3.46912-.6024-3.46912-1.33868 0-.73629 1.55481-1.33871 3.46912-1.33871Z"/><path fill="#741113" d="m22.5377 7.9064 3.8382 1.51657-3.8344 1.51653-.0038-3.0331Z"/><path fill="#AC2724" d="m22.5377 7.9064.0038 3.0331-.4169.1626-3.8364-1.51658 4.2495-1.67912Z"/></svg>