<svg xmlns="http://www.w3.org/2000/svg" width="32" height="33" fill="none" viewBox="0 0 32 33"><path fill="#fff" fill-rule="evenodd" d="m2.31885 16.9695 1.50939 4.5464 7.13416-1.5997 8.1405-7.3535 2.1931-7.53403-3.5477-2.41246-5.764 1.86913-6.66437 6.09886-3.00108 6.3853Z" clip-rule="evenodd"/><path fill="#A00403" d="m28.2797 29.1224 1.6778-20.72787-6.4781 12.66037-15.76511 9.4912c6.50391-.4565 13.77031-.9548 20.56701-1.4205l-.0016-.0032Z"/><path fill="#B11205" d="m29.5418 11.5611-8.3161-6.51331-2.1717 7.48041c8.8314.7494 7.3809-.7759 10.4878-.9671Zm-18.6117 8.2866 10.9391 3.4586-2.8152-10.7781-8.1239 7.3195Zm-7.1586 1.5282c3.5391 11.1804 4.42388 13.5934 7.1586-1.5282l-7.23903 1.6891.08043-.1609ZM17.6866 2.63477l7.8021.08043-4.263 2.33259c-.8848-.56304-2.8956-1.93042-3.5391-2.41302ZM2.32369 16.952l-.32174 7.963 1.84999-3.4587-1.52825-4.5043ZM19.4562 4.00215c2.0912 2.09128-.0805 7.15865-4.2631 11.26075-4.1825 4.1022-9.49118 6.6761-11.58246 4.5848-2.01086-2.0825.0563-7.2391 4.25094-11.34124 4.19462-4.10214 9.58772-6.5956 11.59862-4.50431h-.004Z"/><path fill="#9F0D02" d="m10.9301 19.8477 10.6977 3.4586c-3.8608 3.6196-11.0597 6.9576-13.91509 7.2391l3.21739-10.6977Z"/><path fill="#891102" d="m19.054 12.5283 2.6543 10.6978c3.2173-3.3783 6.113-7.0782 7.5608-11.5825l-10.2151.8847Zm9.2257 16.5936-1.6633-12.2501-4.9081 6.3543 6.5714 5.8958Z"/><path fill="#AA1401" d="M29.3495 11.724c1.0456-3.29785 1.2869-8.12389-3.8608-9.00867l-4.2631 2.33259 8.1239 6.67608Z"/><path fill="#9E1209" d="M2.00189 24.9147c.16087 5.4695 4.02171 5.55 5.71082 5.6304l-3.94127-9.089-1.76955 3.4586Z"/><path fill="#900E04" d="m10.9301 19.8477 4.3435 8.2847c2.5738-1.3674 4.5847-3.0565 6.3542-4.9065l-10.6977-3.3782Z"/><path fill="#8B1104" d="m3.77146 21.4569-.64347 7.3195c1.12608 1.6086 2.73476 1.6891 4.42388 1.6086-1.20652-2.976-3.61954-9.0086-3.78041-8.9281Z"/></svg>