<svg xmlns="http://www.w3.org/2000/svg" viewBox="0 0 26 26"><g fill="none"><circle cx="13" cy="13" r="12.6389" fill="#FFF" stroke="#3F7899" stroke-width=".722222"/><path fill="#3F7899" d="M1.44444 12.9997c0 4.574 2.65818 8.5269 6.51276 10.4001L2.44491 8.2968c-.64118 1.4372-1.00047 3.0276-1.00047 4.7029Zm19.35706-.5831c0-1.4281-.513-2.4171-.953-3.1869-.5857-.9519-1.1348-1.758-1.1348-2.7099 0-1.06226.8057-2.05107 1.9405-2.05107.0512 0 .0998.00637.1497.00923-2.0559-1.88352-4.795-3.03352-7.8034-3.03352-4.0371 0-7.58888 2.07131-9.65513 5.20861.27111.00814.52662.01385.74364.01385 1.20871 0 3.07969-.14666 3.07969-.14666.6229-.03672.6964.87826.0741.95186 0 0-.626.0737-1.32259.1102l4.20809 12.5169 2.5289-7.5845-1.8004-4.9329c-.6223-.0365-1.2118-.1101-1.2118-.1101-.6227-.0365-.5497-.98862.073-.9519 0 0 1.9084.14666 3.0439.14666 1.2085 0 3.0797-.14666 3.0797-.14666.6234-.03672.6966.8782.0741.9519 0 0-.6273.0736-1.3226.1101l4.176 12.4222 1.1526-3.8517c.4996-1.5984.8798-2.7464.8798-3.7357Z"/><path fill="#3F7899" d="M13.2031 14.0106 9.736 24.0854c1.0352.3044 2.13.4708 3.2644.4708 1.3457 0 2.6362-.2326 3.8374-.655-.031-.0495-.0591-.1021-.0822-.1592l-3.5525-9.7314Zm9.9369-6.555c.0497.3681.0778.7632.0778 1.1883 0 1.1726-.219 2.4908-.8786 4.1391l-3.5298 10.2054c3.4354-2.0033 5.7462001-5.7253 5.7462001-9.9884C24.5558 10.9909 24.0426 9.1017 23.14 7.4556Z"/></g></svg>