<svg width="96" height="96" viewBox="0 0 96 96" fill="none" xmlns="http://www.w3.org/2000/svg">
<path d="M44.4624 29.0002H33C33 29.0002 33.0003 30.2475 33.0003 31.786V40.1431H35.8659H41.5971H44.4624L44.4627 31.786C44.4627 30.2475 44.4624 29.0002 44.4624 29.0002Z" fill="white"/>
<path d="M44.4624 42.9287H33C33 42.9287 33.0003 44.1759 33.0003 45.7144V54.0716H35.8659H41.5971H44.4624L44.4627 45.7144C44.4627 44.1759 44.4624 42.9287 44.4624 42.9287Z" fill="white"/>
<path d="M44.4624 56.8572H33C33 56.8572 33.0003 58.1044 33.0003 59.6429V68H35.8659H41.5971H44.4624L44.4627 59.6429C44.4627 58.1044 44.4624 56.8572 44.4624 56.8572Z" fill="white"/>
<ellipse cx="57.3581" cy="34.5714" rx="5.73134" ry="5.57143" fill="white" fill-opacity="0.7"/>
<ellipse cx="57.3581" cy="48.5001" rx="5.73134" ry="5.57143" fill="white" fill-opacity="0.7"/>
<ellipse cx="57.3581" cy="62.4286" rx="5.73134" ry="5.57143" fill="white" fill-opacity="0.7"/>
</svg>
