<svg width="96" height="96" viewBox="0 0 96 96" fill="none" xmlns="http://www.w3.org/2000/svg">
<path d="M58.7945 33.2677L47.627 27C47.627 27 46.9056 28.2153 46.0153 29.7142L41.1795 37.8564L43.9714 39.4233L49.5552 42.5572L52.3467 44.1239L57.1829 35.9819C58.0731 34.483 58.7945 33.2677 58.7945 33.2677Z" fill="white"/>
<path d="M46.6153 53.7738L35.4478 47.5061C35.4478 47.5061 34.7264 48.7214 33.8361 50.2203L29.0003 58.3625L31.7922 59.9294L37.376 63.0633L40.1675 64.63L45.0037 56.488C45.8939 54.9891 46.6153 53.7738 46.6153 53.7738Z" fill="white"/>
<rect width="10.3239" height="36.4769" transform="matrix(0.872044 0.489427 -0.510648 0.85979 57.2424 32.3936)" fill="white"/>
</svg>
