<svg width="96" height="96" viewBox="0 0 96 96" fill="none" xmlns="http://www.w3.org/2000/svg">
<path d="M42.3728 30H29C29 30 29.0004 31.4551 29.0004 33.25V43H32.3436H39.0299H42.3728L42.3731 33.25C42.3731 31.4551 42.3728 30 42.3728 30Z" fill="white"/>
<path opacity="0.6" d="M42.3728 66.8325H29C29 66.8325 29.0004 65.3774 29.0004 63.5825V53.8325H32.3436H39.0299H42.3728L42.3731 63.5825C42.3731 65.3774 42.3728 66.8325 42.3728 66.8325Z" fill="white" fill-opacity="0.7"/>
<path d="M66.8933 53.8325H53.5205C53.5205 53.8325 53.5209 55.2876 53.5209 57.0825V66.8325H56.8641H63.5505H66.8933L66.8936 57.0825C66.8936 55.2876 66.8933 53.8325 66.8933 53.8325Z" fill="white"/>
<path opacity="0.6" d="M66.8933 43H53.5205C53.5205 43 53.5209 41.5449 53.5209 39.75V30H56.8641H63.5505H66.8933L66.8936 39.75C66.8936 41.5449 66.8933 43 66.8933 43Z" fill="white" fill-opacity="0.7"/>
</svg>
