<svg width="96" height="96" viewBox="0 0 96 96" fill="none" xmlns="http://www.w3.org/2000/svg">
<path d="M30.9831 39.3355L21.5271 48.7915C21.5271 48.7915 22.5563 49.8201 23.8255 51.0893L30.7198 57.9836L33.0837 55.6196L37.8117 50.8917L40.1754 48.5279L33.2814 41.6334C32.0122 40.3642 30.9831 39.3355 30.9831 39.3355Z" fill="white"/>
<path opacity="0.6" d="M57.0275 65.38L47.5715 74.8359C47.5715 74.8359 46.5429 73.8068 45.2737 72.5376L38.3794 65.6433L40.7434 63.2793L45.4714 58.5513L47.8351 56.1876L54.7297 63.0816C55.9989 64.3508 57.0275 65.38 57.0275 65.38Z" fill="white" fill-opacity="0.7"/>
<path d="M65.1737 38.8492L55.7178 48.3052C55.7178 48.3052 56.7469 49.3338 58.0161 50.603L64.9104 57.4973L67.2744 55.1333L72.0024 50.4053L74.3661 48.0416L67.4721 41.147C66.2029 39.8778 65.1737 38.8492 65.1737 38.8492Z" fill="white"/>
<path opacity="0.6" d="M57.5141 31.1895L48.0581 40.6455C48.0581 40.6455 47.0295 39.6163 45.7603 38.3471L38.866 31.4529L41.23 29.0889L45.958 24.3609L48.3217 21.9972L55.2162 28.8912C56.4854 30.1604 57.5141 31.1895 57.5141 31.1895Z" fill="white" fill-opacity="0.7"/>
</svg>
