<svg width="96" height="96" viewBox="0 0 96 96" fill="none" xmlns="http://www.w3.org/2000/svg">
<path opacity="0.6" fill-rule="evenodd" clip-rule="evenodd" d="M29 30H41.8952C41.8952 30 41.8955 34.0534 41.8955 39.0536L41.8952 66.2143H38.6717H32.2242H29.0004V39.0536C29.0004 34.0534 29 30 29 30ZM41.8955 53.6787H66.253C66.253 53.6787 66.2537 55.0818 66.2537 56.8126L66.253 66.2144H60.1644H47.9856H41.8962V56.8126C41.8962 55.0818 41.8955 53.6787 41.8955 53.6787Z" fill="white" fill-opacity="0.7"/>
<path d="M66.2533 30H47.627C47.627 30 47.6275 32.0267 47.6275 34.5268V48.1071H52.2841H61.5972H66.2533L66.2538 34.5268C66.2538 32.0267 66.2533 30 66.2533 30Z" fill="white" fill-opacity="0.7"/>
</svg>
